<?xml version="1.0" encoding="UTF-8"?>
<svg id="Ebene_1" data-name="Ebene 1" xmlns="http://www.w3.org/2000/svg" xmlns:xlink="http://www.w3.org/1999/xlink" version="1.1" viewBox="0 0 1000 750">
  <defs>
    <style>
      .cls-1 {
        fill: url(#linear-gradient);
      }

      .cls-1, .cls-2 {
        fill-rule: evenodd;
        stroke-width: 0px;
      }

      .cls-2 {
        fill: url(#linear-gradient-2);
      }
    </style>
    <linearGradient id="linear-gradient" x1="145.3" y1="432.9" x2="855.7" y2="432.9" gradientUnits="userSpaceOnUse">
      <stop offset="0" stop-color="#791e00"/>
      <stop offset=".4" stop-color="#a72607"/>
      <stop offset=".8" stop-color="#d32e0f"/>
      <stop offset="1" stop-color="#e53212"/>
    </linearGradient>
    <linearGradient id="linear-gradient-2" x1="83.9" y1="375.5" x2="917.1" y2="375.5" gradientUnits="userSpaceOnUse">
      <stop offset="0" stop-color="#d77e16"/>
      <stop offset=".1" stop-color="#f4c85d"/>
      <stop offset=".2" stop-color="#ad5e00"/>
      <stop offset=".3" stop-color="#ad5e00"/>
      <stop offset=".4" stop-color="#e0aa05"/>
      <stop offset=".5" stop-color="#e9b500"/>
      <stop offset=".6" stop-color="#e9b51c"/>
      <stop offset=".7" stop-color="#ffefae"/>
      <stop offset=".8" stop-color="#d7aa4d"/>
      <stop offset=".8" stop-color="#d6a420"/>
      <stop offset="1" stop-color="#f1b75a"/>
    </linearGradient>
  </defs>
  <path class="cls-1" d="M416.6,591.2c2.9-2.6,6.1-5.1,9.3-7.3l-32.9-284.6c-32.2-13.8-67.2-24.2-102.4-24.8-44-.7-86,13-114.3,48.1-33.5,41.6-37,99.4-24.1,149.5,8.6,33.3,24.1,65.1,43.3,93.6,11.2-.6,22.4.8,33.2,4,13.8,4.2,26.9,11.5,37.3,21.6,40.1-36.8,111.1-38.7,150.7-.2ZM805.5,565.7c19.2-28.5,34.7-60.3,43.3-93.6,12.9-50.1,9.4-107.9-24.1-149.5-28.3-35.1-70.3-48.8-114.4-48.1-35.3.5-70.2,11-102.4,24.8l-32.9,284.6c3.3,2.2,6.4,4.7,9.3,7.3,39.6-38.5,110.6-36.6,150.7.2,10.3-10.1,23.5-17.5,37.3-21.6,10.8-3.2,22-4.6,33.2-4Z"/>
  <path class="cls-2" d="M234.7,702.8v36.2h531.7v-36.2H234.7ZM858.1,558.3c1.6-7-2.9-14-9.9-15.6-7-1.6-14,2.9-15.6,9.9-1.6,7,2.9,14,9.9,15.6,7,1.6,14-2.9,15.6-9.9ZM886,518.9c2-8.8-3.6-17.7-12.4-19.6-8.8-2-17.6,3.6-19.6,12.5-2,8.8,3.6,17.6,12.4,19.6,8.8,2,17.6-3.6,19.6-12.5ZM905.4,469.5c2.2-10.1-4.2-20.2-14.2-22.4-10.1-2.2-20.2,4.2-22.4,14.2-2.3,10.1,4.2,20.2,14.2,22.4,10.1,2.3,20.2-4.2,22.4-14.2ZM916.6,410.7c2.7-12.2-5-24.3-17.2-27.1-12.2-2.7-24.3,5-27,17.2-2.7,12.2,5,24.3,17.2,27.1,12.2,2.7,24.3-5,27.1-17.2ZM623.4,251.2c-7.2,0-13.1,5.9-13.1,13.1s5.8,13.1,13.1,13.1,13.1-5.8,13.1-13.1-5.9-13.1-13.1-13.1ZM668,232.7c-9.1,0-16.4,7.4-16.4,16.4s7.4,16.4,16.4,16.4,16.4-7.4,16.4-16.4-7.4-16.4-16.4-16.4ZM720.5,222.7c-10.4,0-18.8,8.4-18.8,18.8s8.4,18.8,18.8,18.8,18.8-8.4,18.8-18.8-8.4-18.8-18.8-18.8ZM780.5,225.1c-12.5,0-22.7,10.1-22.7,22.7s10.1,22.7,22.7,22.7,22.7-10.1,22.7-22.7-10.2-22.7-22.7-22.7ZM841.7,252.8c-14.8,0-26.8,12-26.8,26.8s12,26.8,26.8,26.8,26.8-12,26.8-26.8-12-26.8-26.8-26.8ZM883.9,312.7c-14.8,0-26.8,12-26.8,26.8s12,26.8,26.8,26.8,26.8-12,26.8-26.8-12-26.8-26.8-26.8ZM142.9,558.4c1.5,6.9,8.6,11.5,15.6,9.9,7-1.6,11.4-8.6,9.8-15.6-1.5-6.9-8.5-11.5-15.5-9.9-7.1,1.6-11.5,8.5-9.9,15.6ZM115,518.9c2,8.8,10.8,14.4,19.6,12.4,8.9-2,14.5-10.8,12.6-19.6-2.1-8.8-10.9-14.4-19.8-12.5-8.7,2-14.4,10.9-12.5,19.6ZM95.6,469.5c2.2,10,12.3,16.5,22.3,14.2,10.1-2.2,16.7-12.3,14.4-22.4-2.3-10-12.4-16.5-22.5-14.3-10.1,2.2-16.6,12.3-14.3,22.4ZM84.4,410.7c2.8,12.1,14.9,19.9,27,17.2,12.2-2.7,20-14.8,17.3-27-2.8-12.1-14.9-19.9-27.1-17.2-12.2,2.7-19.9,14.9-17.3,27.1ZM377.6,251.2c-7.2,0-12.9,5.9-12.9,13.1s5.7,13.1,12.9,13.1,13.1-5.8,13.1-13.1-5.9-13.1-13.1-13.1ZM333.1,232.7c-9.2,0-16.5,7.3-16.5,16.4s7.3,16.4,16.5,16.4,16.4-7.4,16.4-16.4-7.3-16.4-16.4-16.4ZM280.5,222.7c-10.3,0-18.8,8.5-18.8,18.8s8.5,18.8,18.8,18.8,18.9-8.3,18.9-18.8-8.5-18.8-18.9-18.8ZM220.4,225.1c-12.5,0-22.5,10.2-22.5,22.7s10,22.7,22.5,22.7,22.7-10.1,22.7-22.7-10.2-22.7-22.7-22.7ZM159.3,252.8c-14.7,0-26.7,12.1-26.7,26.8s12,26.8,26.7,26.8,27-12,27-26.8-12.2-26.8-27-26.8ZM567.2,259.8c-16.7,19.5-40.9,30.7-66.7,30.7s-50-11.2-66.7-30.7l-27,11.3,35.1,303.9c35.1-15.9,82-15.9,117.2,0l35.1-303.9-27-11.3ZM491.4,193v-52.4l1.9-.2c2.4-.3,4.8-.4,7.2-.4s5.1.2,7.7.5l1.9.2v52.3h52.1s.2,1.9.2,1.9c.3,2.5.4,4.9.4,7.4s-.2,5-.5,7.5l-.2,1.9h-123.3s-.2-1.9-.2-1.9c-.3-2.5-.5-5-.5-7.5s.2-4.9.4-7.4l.2-1.9h52.6ZM436.4,51.9v57.7c17.9-12.3,24.5-15.2,48.4-15.2h2.1v38.8l-1.7.4c-32.4,7.1-55.6,36-55.6,69.2s31.8,70.9,70.9,70.9,70.9-31.8,70.9-70.9-23.2-62.1-55.6-69.2l-1.7-.4v-38.8h2.1c23.9,0,30.6,3,48.4,15.2v-57.7c-17.8,12.3-24.5,15.3-48.4,15.3h-2.1v-2.1c0-26.1,1.9-33.1,15.5-53h-58.2c13.5,19.9,15.5,26.9,15.5,53v2.1h-2.1c-23.9,0-30.6-3-48.4-15.3ZM660.1,615.9c8,0,16.9,1.5,24.1,5.2,5.3,2.7,10.8,7.3,10.8,13.8s-5.5,11.1-10.8,13.8c-7.2,3.7-16.1,5.2-24.1,5.2s-16.9-1.5-24.1-5.2c-5.3-2.7-10.8-7.3-10.8-13.8s5.5-11.1,10.8-13.8c7.2-3.7,16.1-5.2,24.1-5.2ZM340.9,615.9c8,0,16.9,1.5,24.1,5.2,5.3,2.7,10.8,7.3,10.8,13.8s-5.5,11.1-10.8,13.8c-7.2,3.7-16.1,5.2-24.1,5.2s-16.9-1.5-24.1-5.2c-5.3-2.7-10.8-7.3-10.8-13.8s5.5-11.1,10.8-13.8c7.2-3.7,16.1-5.2,24.1-5.2ZM800.6,617c2.5,3.4,3.8,7.5,3.3,11.8-1.2,11.2-12.6,18.6-23,20.1h-.7c0,0-.6-.2-.6-.2-5.3-2.7-10.8-7.3-10.8-13.8,0-12.9,19.8-18,29.8-18.7h1.2c0,0,.7.9.7.9ZM220.1,648.8c-10.3-1.5-21.8-8.9-23-20.1-.5-4.3.8-8.3,3.3-11.8l.7-1h1.2c9.9.9,29.7,5.9,29.7,18.8s-5.5,11.1-10.8,13.8l-.6.3h-.7ZM500.5,615.9c8,0,16.9,1.5,24.1,5.2,5.3,2.7,10.8,7.3,10.8,13.8s-5.5,11.1-10.8,13.8c-7.2,3.7-16.1,5.2-24.1,5.2s-16.9-1.5-24.1-5.2c-5.3-2.7-10.8-7.3-10.8-13.8s5.5-11.1,10.8-13.8c7.2-3.7,16.1-5.2,24.1-5.2ZM665.6,580.1h0c-.9,0-1.8-.1-2.6-.2h0c-.9,0-1.8,0-2.7,0h0c-.9,0-1.8,0-2.7,0h0c-.9,0-1.8,0-2.7,0-.9,0-1.8,0-2.6.1h0c-.9,0-1.7.1-2.6.2-25,2.1-48.7,13.4-62.9,34.6l-1.8,2.7-1.8-2.7c-15.5-23-46.6-32.9-73-34.6-1,0-2-.1-3-.2h0c-1,0-2.1,0-3.1-.1h0c-1,0-2.1,0-3.1,0h0c-1,0-2.1,0-3.1,0h0c-1,0-2.1,0-3.2.1h0c-1,0-2.1,0-3.1.2-21.8,1.4-45.8,8.2-62.5,22.9-.7.6-1.3,1.2-2,1.8-.6.6-1.3,1.2-1.9,1.9-.6.6-1.2,1.3-1.8,1.9-.6.6-1.1,1.3-1.7,2-.6.7-1.1,1.4-1.6,2.1-.5.7-1,1.4-1.5,2.1l-1.8,2.7-1.8-2.7c-.5-.8-1-1.5-1.6-2.2-14.4-19.8-37.3-30.3-61.3-32.4-.9,0-1.7-.1-2.6-.2h0c-.9,0-1.8,0-2.6-.1h0c-.9,0-1.8,0-2.7,0h0c-.9,0-1.8,0-2.7,0h0c-.9,0-1.8,0-2.7,0-.9,0-1.8,0-2.7.1-.9,0-1.8.1-2.7.2-.9,0-1.8.2-2.7.3-.9.1-1.8.2-2.7.4-.9.1-1.8.3-2.7.4-.9.2-1.8.3-2.7.5-.9.2-1.8.4-2.6.6-.9.2-1.7.4-2.6.6-.9.2-1.7.4-2.6.7-.9.2-1.7.5-2.6.8-.8.3-1.7.5-2.5.8-16.6,5.6-31.8,15.6-42.1,29.9l-1.9,2.6-1.7-2.8c-7.1-11.9-18.9-21-31.6-26.3-.5-.2-1-.4-1.6-.6-.5-.2-1.1-.4-1.6-.6-.5-.2-1.1-.4-1.6-.6-.5-.2-1.1-.4-1.6-.5-.5-.2-1.1-.4-1.6-.5-.5-.2-1.1-.3-1.7-.5-.6-.2-1.1-.3-1.7-.4-.6-.1-1.1-.3-1.7-.4-3.5-.8-7-1.4-10.6-1.7-.6,0-1.1-.1-1.7-.1h-.1c-.6,0-1.2,0-1.7-.1h0s0,0,0,0h0c-.6,0-1.2,0-1.8,0h0c-.6,0-1.2,0-1.8,0h0c-.6,0-1.2,0-1.9,0h0c-.6,0-1.2,0-1.9,0h0c-.6,0-1.2,0-1.8,0-9.4.6-18.5,2.7-27.2,6.2,10.4,6.3,19.7,15,27.6,24.1l1,1.2-.9,1.3c-2.6,4.1-3.9,8.9-3.4,13.8,1.4,13.4,14.5,22.4,26.9,24.2l2.4.3.5,1.1c4.9,10.5,8.9,21.6,11.8,32.8h532.9c2.9-11.3,6.8-22.3,11.7-32.8l.5-1.1,2.4-.3c12.5-1.8,25.5-10.9,26.9-24.2.5-4.9-.7-9.7-3.4-13.8l-.9-1.3,1-1.2c7.9-9.1,17.2-17.8,27.6-24.1-8.1-3.3-16.6-5.3-25.3-6.1-.6,0-1.2,0-1.8-.1h0c-.6,0-1.2,0-1.8,0h0c-.6,0-1.2,0-1.8,0h0c-.6,0-1.2,0-1.9,0h0c-.6,0-1.2,0-1.9,0-.6,0-1.2,0-1.8,0h0c-15.3.8-30.4,5.9-42.7,15.1l-.4.3c-6.2,4.7-11.7,10.5-15.7,17.1l-1.7,2.8-1.9-2.6c-10.3-14.3-25.5-24.3-42.1-29.9-.8-.3-1.7-.6-2.6-.8-.9-.3-1.7-.5-2.6-.8-.9-.2-1.7-.5-2.6-.7-.9-.2-1.7-.4-2.6-.6-.9-.2-1.8-.4-2.6-.6-.9-.2-1.8-.3-2.7-.5-.9-.2-1.8-.3-2.7-.4-.9-.1-1.8-.3-2.7-.4-.9-.1-1.8-.2-2.7-.3-.9,0-1.7-.2-2.6-.2ZM117.1,312.7c-14.8,0-26.7,12-26.7,26.8s11.9,26.8,26.7,26.8,26.7-12.1,26.7-26.8-12-26.8-26.7-26.8Z"/>
</svg>