<?xml version="1.0" encoding="UTF-8"?>
<svg id="Ebene_1" data-name="Ebene 1" xmlns="http://www.w3.org/2000/svg" xmlns:xlink="http://www.w3.org/1999/xlink" version="1.1" viewBox="0 0 658 7.5">
  <defs>
    <style>
      .cls-1 {
        clip-path: url(#clippath);
      }

      .cls-2 {
        fill: none;
      }

      .cls-2, .cls-3, .cls-4, .cls-5, .cls-6, .cls-7, .cls-8, .cls-9 {
        stroke-width: 0px;
      }

      .cls-3 {
        fill: #f4cf23;
      }

      .cls-4 {
        fill: #1834c6;
      }

      .cls-5 {
        fill: #00c056;
      }

      .cls-6 {
        fill: #cde4f1;
      }

      .cls-7 {
        fill: #000;
      }

      .cls-8 {
        fill: #fc0800;
      }

      .cls-9 {
        fill: #1a1f2a;
      }
    </style>
    <clipPath id="clippath">
      <rect class="cls-2" width="658" height="7.5"/>
    </clipPath>
  </defs>
  <g class="cls-1">
    <g>
      <polygon class="cls-7" points="331.4 -289.6 331.4 -289.6 331.4 -289.6 331.4 -289.6"/>
      <polygon class="cls-7" points="340.1 -291.4 340.1 -291.4 340.1 -291.4 340.1 -291.4"/>
      <polygon class="cls-7" points="348 -295.5 348 -295.5 348 -295.5 348 -295.5"/>
      <polygon class="cls-7" points="326.9 -289.7 326.9 -289.7 326.9 -289.7 326.9 -289.7"/>
      <polygon class="cls-7" points="318.2 -291.6 318.2 -291.6 318.2 -291.6 318.2 -291.6"/>
      <path class="cls-3" d="M262.9-321.5c0-1.2,0-2.4.1-3.6l-412.3-22.5c-.5,8.8-.7,17.7-.7,26.6h0c0,1.1,0,2.2,0,3.4,0,1.2,0,2.3,0,3.5h0c.1,8.9.5,17.8,1.1,26.6l411.9-29.1c-.1-1.6-.2-3.1-.2-4.7Z"/>
      <path class="cls-4" d="M320.9-387.5c2.7-.4,5.5-.6,8.4-.6l-1.7-412.9c-8.8,0-17.7.3-26.6.9h0c-1.1,0-2.2.1-3.3.2-1.2,0-2.3.1-3.5.2h0c-8.9.7-17.8,1.6-26.5,2.7l53.3,409.5Z"/>
      <path class="cls-3" d="M286.3-372.1L18.1-686.1c-2.8,2.4-5.6,4.9-8.4,7.3h0c-.6.6-1.3,1.1-1.9,1.7-1.1,1-2.2,2-3.3,3-.9.9-1.8,1.7-2.8,2.6-1.1,1.1-2.2,2.1-3.4,3.2-.9.8-1.8,1.7-2.6,2.5-.8.7-1.5,1.5-2.3,2.2h0c-2.6,2.6-5.2,5.1-7.7,7.7l296,288c1.4-1.5,3-2.9,4.5-4.2Z"/>
      <path class="cls-8" d="M311.7-385.6c2.7-.7,5.4-1.3,8.2-1.7l-59.1-408.7c-8.8,1.3-17.7,2.8-26.4,4.6h0c-1.3.2-2.5.5-3.8.8-.9.2-1.9.4-2.8.6h0c-8.8,1.9-17.6,4.1-26.2,6.5l110.1,398Z"/>
      <path class="cls-3" d="M302.9-382.5c2.6-1.1,5.2-2.1,7.9-2.9l-115.6-396.4c-8.7,2.5-17.3,5.3-25.9,8.4h0c-1,.3-2,.7-3,1.1-1,.4-2.1.7-3.1,1.1h0c-8.5,3.2-17.1,6.6-25.4,10.2l165,378.5Z"/>
      <path class="cls-5" d="M294.6-378.2c2.4-1.5,4.9-2.8,7.5-4l-170.1-376.3c-8.3,3.7-16.6,7.8-24.7,12h0c-.8.4-1.6.8-2.4,1.3-1.1.6-2.2,1.2-3.3,1.7h0c-8,4.4-16,8.9-23.7,13.7l216.7,351.5Z"/>
      <path class="cls-4" d="M266.9-344.2c1-2.7,2.1-5.2,3.4-7.7l-366.9-189.4c-4.2,8.1-8.1,16.4-11.9,24.7h0c-.4.9-.8,1.7-1.1,2.6-.5,1.1-1,2.2-1.5,3.3h0c-3.6,8.4-7,16.9-10.1,25.4l388,141.1Z"/>
      <path class="cls-8" d="M275.7-360.7c1.7-2.3,3.4-4.4,5.4-6.4L-19.1-650.7c-6,6.4-11.9,13-17.6,19.7h0c-.8.9-1.5,1.8-2.3,2.8-.7.8-1.4,1.6-2.1,2.5h0c-5.7,6.9-11.2,14.1-16.5,21.3l333.3,243.7Z"/>
      <path class="cls-8" d="M264.4-335.3c.6-2.8,1.3-5.5,2.3-8.1L-123.3-479.2c-3,8.5-5.7,17.2-8.2,25.8h0c-.2.7-.4,1.5-.6,2.2-.4,1.4-.8,2.8-1.2,4.2h0c-2.3,8.7-4.5,17.4-6.3,26.2l404,85.5Z"/>
      <path class="cls-6" d="M270.7-352.8c1.3-2.5,2.8-4.9,4.5-7.2L-61.4-599.1c-5.2,7.4-10.3,15-15.2,22.7h0c-.6.9-1.2,1.9-1.7,2.8-.6.9-1.1,1.8-1.7,2.7h0c-4.8,7.8-9.3,15.8-13.6,23.8l364.3,194.3Z"/>
      <path class="cls-9" d="M263.1-326c.2-2.8.6-5.6,1.1-8.3l-405.1-79.8c-1.7,8.7-3.2,17.6-4.4,26.4h0c-.1.9-.2,1.8-.4,2.7-.2,1.3-.4,2.7-.5,4h0c-1.1,8.8-2,17.7-2.6,26.5l412,28.4Z"/>
      <path class="cls-8" d="M392.9-341.9l393.1-126.3c-2.8-8.6-5.8-17.2-9.1-25.7h0c-.4-1.1-.9-2.2-1.3-3.3-.4-.9-.7-1.9-1.1-2.8h0c-3.4-8.5-7-16.9-10.9-25.1l-373.9,175.3c1.2,2.5,2.2,5.2,3.1,7.9Z"/>
      <path class="cls-9" d="M389.4-350.5l371.5-180.3c-4-8.2-8.2-16.3-12.7-24.3h0c-.5-.9-1-1.7-1.5-2.6-.6-1-1.1-2-1.7-3.1h0c-4.5-7.9-9.3-15.7-14.3-23.3l-345.5,226.2c1.5,2.4,2.9,4.8,4.2,7.3Z"/>
      <path class="cls-5" d="M395.1-332.8l406.9-70.1c-1.5-8.8-3.3-17.6-5.3-26.4h0c-.3-1.3-.6-2.6-1-4-.2-.8-.4-1.7-.6-2.5h0c-2.2-8.8-4.5-17.5-7.2-26.1l-394.8,120.9c.8,2.7,1.5,5.4,1.9,8.2Z"/>
      <path class="cls-3" d="M384.7-358.7l342.4-230.9c-5-7.4-10.3-14.8-15.7-22h0c-.5-.7-1.1-1.4-1.6-2.1-.8-1.1-1.7-2.2-2.5-3.3h0c-5.4-6.9-11.1-13.8-16.9-20.4l-310.7,272c1.8,2.1,3.6,4.3,5.1,6.6Z"/>
      <path class="cls-3" d="M396-323.5l412.7-12.8c-.3-8.8-.8-17.7-1.6-26.6h0c-.1-1.4-.3-2.8-.4-4.2,0-.9-.2-1.8-.2-2.6h0c-.9-8.9-2-17.7-3.4-26.5l-407.9,64.4c.4,2.7.7,5.5.8,8.3Z"/>
      <path class="cls-6" d="M356.5-382.3l167.3-377.5c-8.3-3.7-16.8-7.1-25.3-10.3h0c-.9-.3-1.8-.7-2.7-1-1.2-.4-2.3-.9-3.5-1.3h0c-8.5-3.1-17.1-5.9-25.8-8.5l-118,395.7c2.7.8,5.4,1.8,7.9,2.9Z"/>
      <path class="cls-6" d="M379-366l306.7-276.5c-5.8-6.4-11.8-12.7-18-18.9h0c-.9-.9-1.8-1.8-2.7-2.7-.8-.8-1.6-1.6-2.4-2.4h0c-6.3-6.1-12.8-12-19.4-17.7l-270.1,312.4c2.1,1.8,4.1,3.8,6,5.8Z"/>
      <path class="cls-5" d="M347.7-385.5l112.5-397.3c-8.6-2.4-17.4-4.6-26.1-6.6h0c-.9-.2-1.7-.4-2.6-.6-1.3-.3-2.7-.6-4-.9h0c-8.7-1.8-17.6-3.4-26.3-4.7l-61.6,408.3c2.8.4,5.5,1,8.2,1.8Z"/>
      <path class="cls-9" d="M338.5-387.4l55.8-409.1c-8.8-1.2-17.6-2.1-26.5-2.9h0c-1,0-2-.1-3-.2-1.3,0-2.6-.2-3.9-.3h0c-8.8-.6-17.7-.9-26.6-1l-4.3,412.9c2.8,0,5.6.2,8.3.6Z"/>
      <path class="cls-8" d="M364.7-377.9l218.8-350.2c-7.7-4.8-15.7-9.5-23.7-13.8h0c-1-.6-2-1.1-3-1.6-.9-.5-1.8-1-2.6-1.4h0c-8.1-4.3-16.3-8.4-24.6-12.2l-172.3,375.2c2.6,1.2,5.1,2.5,7.4,4Z"/>
      <path class="cls-5" d="M372.3-372.5l265.6-316.2c-6.8-5.7-13.9-11.3-21.1-16.7h0c-1.1-.8-2.2-1.7-3.4-2.5-.7-.5-1.3-1-2-1.5h0c-7.3-5.3-14.9-10.5-22.5-15.4l-223.5,347.2c2.4,1.5,4.6,3.2,6.8,5Z"/>
      <path class="cls-6" d="M287-372.7c2.2-1.8,4.4-3.4,6.8-4.9l-221.4-348.5c-7.6,4.8-15.1,9.9-22.5,15.2h0c-.6.4-1.2.9-1.8,1.3-1.2.9-2.4,1.7-3.6,2.6h0c-7.2,5.3-14.2,10.8-21,16.5l263.6,317.9Z"/>
      <path class="cls-8" d="M263.2-315.8l-411.4,35c.8,8.8,1.8,17.7,3,26.5h0c.2,1.2.4,2.4.6,3.7.2,1,.3,2,.4,3h0c1.4,8.8,3,17.7,4.9,26.4l403.8-86.4c-.6-2.7-1-5.5-1.2-8.3Z"/>
      <path class="cls-3" d="M368.2-267.3l240.1,335.9c7.2-5.2,14.4-10.6,21.4-16.2h0c1.7-1.3,3.4-2.7,5-4.1,0,0,.2-.2.3-.2h0c4.8-4,9.6-8.1,14.2-12.2,1.9-1.7,3.7-3.4,5.6-5.1l-280.1-303.4c-2,1.9-4.2,3.6-6.5,5.3Z"/>
      <path class="cls-4" d="M381-279.3c-1.8,2.2-3.7,4.2-5.7,6.1L660.1,25.9c6.2-5.9,12.2-12,18.1-18.2.1-.1.2-.2.3-.3h0c.8-.8,1.5-1.6,2.3-2.4.8-.9,1.7-1.8,2.5-2.7h0c6-6.5,11.8-13.2,17.4-20.1l-319.6-261.5Z"/>
      <path class="cls-8" d="M341.7-256c-2.7.5-5.5.9-8.3,1l23.9,412.2c8.8-.5,17.7-1.3,26.5-2.3h0c1.4-.1,2.9-.3,4.3-.5.8,0,1.6-.2,2.4-.3h0c8.9-1.1,17.7-2.5,26.5-4.1l-75.4-406Z"/>
      <path class="cls-5" d="M359.4-262c-2.5,1.3-5.1,2.4-7.8,3.3l136.9,389.6c8.6-3,17.1-6.3,25.5-9.8h0c1.1-.5,2.3-1,3.4-1.4.9-.4,1.7-.7,2.6-1.1h0c8.4-3.6,16.7-7.5,24.8-11.6l-185.5-368.9Z"/>
      <path class="cls-6" d="M350.7-258.4c-2.6.9-5.4,1.6-8.1,2.2l81.1,404.9c8.8-1.8,17.6-3.8,26.3-6h0c1.4-.3,2.7-.7,4.1-1.1.8-.2,1.5-.4,2.3-.6h0c8.7-2.4,17.4-5,26-7.9l-131.6-391.4Z"/>
      <path class="cls-6" d="M386.5-287c-1.5,2.4-3.1,4.7-4.8,6.9L704.9-23.1c5.6-7,11-14.3,16.2-21.6h0c.8-1.1,1.6-2.3,2.4-3.4.4-.6.9-1.3,1.3-1.9h0c5.2-7.5,10.1-15.2,14.8-23l-353.2-213.9Z"/>
      <path class="cls-4" d="M808.9-329.5l-412.9,6.9c0,.4,0,.7,0,1.1,0,2.4-.1,4.9-.4,7.2l410.5,44.7c1-8.8,1.7-17.7,2.1-26.5h0c0-1.1,0-2.2.1-3.3,0-1.2.1-2.4.2-3.6h0c.3-8.8.5-17.8.3-26.6Z"/>
      <path class="cls-6" d="M395.6-313.3c-.3,2.8-.8,5.6-1.5,8.2l400.2,101.6c2.2-8.6,4.2-17.4,5.9-26.2h0c.2-1,.4-2,.5-2.9.2-1.2.5-2.5.7-3.7h0c1.6-8.8,2.9-17.6,4-26.4l-409.8-50.6Z"/>
      <path class="cls-5" d="M393.8-304.1c-.7,2.7-1.6,5.4-2.7,8l382,156.9c3.4-8.4,6.7-16.9,9.6-25.5h0c.3-.9.6-1.9,1-2.9.4-1.1.8-2.2,1.1-3.4h0c2.8-8.6,5.4-17.3,7.8-25.9l-398.8-107.2Z"/>
      <path class="cls-9" d="M390.7-295.3c-1.1,2.6-2.4,5.1-3.8,7.5l356,209.2c4.6-7.8,9-15.9,13.2-24h0c.5-1,1.1-2.1,1.6-3.2.4-.9.9-1.7,1.3-2.6h0c4.1-8.2,7.9-16.5,11.5-24.9l-379.8-162Z"/>
      <path class="cls-4" d="M367.4-266.8c-2.3,1.6-4.7,3.1-7.2,4.4l190.4,366.4c8.1-4.2,16.1-8.7,23.9-13.3h0c.8-.5,1.7-1,2.5-1.5,1-.6,2-1.2,3-1.8h0c7.7-4.8,15.4-9.7,22.8-14.9l-235.5-339.2Z"/>
      <path class="cls-3" d="M271.3-289.2L-89.8-88.8c4.4,7.9,9.1,15.8,14,23.5h0c.4.7.9,1.4,1.4,2.1.7,1.1,1.4,2.3,2.2,3.4h0c4.9,7.6,10.1,15,15.4,22.3l332.7-244.5c-1.7-2.3-3.2-4.6-4.6-7.1Z"/>
      <path class="cls-5" d="M329.5-254.9c-1.8,0-3.6,0-5.4-.2l-33.6,411.6c8.8.7,17.7,1.2,26.5,1.4h0c1.2,0,2.5,0,3.7,0,1.1,0,2.1,0,3.2,0h0c8.9,0,17.8,0,26.6-.4l-18-412.5c-1,0-1.9,0-2.9,0Z"/>
      <path class="cls-5" d="M264.6-306.6l-402.5,92c2,8.7,4.3,17.5,6.8,26.2h0c.3,1.2.7,2.4,1.1,3.6.3.9.5,1.9.8,2.8h0c2.6,8.7,5.5,17.3,8.6,25.8l387.6-142.2c-1-2.6-1.7-5.3-2.4-8.1Z"/>
      <path class="cls-6" d="M282.5-274.3L-8.9,18.3c3,3,6.1,6,9.2,8.9,3.2,3.1,6.6,6.1,9.9,9h0c1.3,1.1,2.6,2.3,3.8,3.4.5.4.9.8,1.4,1.2h0c6.7,5.8,13.7,11.5,20.7,17l252.7-326.6c-2.2-1.7-4.3-3.5-6.3-5.5Z"/>
      <path class="cls-9" d="M267.3-297.7L-118.4-150.2c3.2,8.5,6.8,17,10.5,25.3h0c.4.9.9,1.9,1.3,2.8.5,1,.9,2.1,1.4,3.1h0c3.9,8.3,8,16.5,12.3,24.5l363.7-195.5c-1.3-2.5-2.5-5-3.5-7.7Z"/>
      <path class="cls-4" d="M276.4-281.3L-52.9-32.1c5.3,7,10.9,14,16.7,20.8h0c1.4,1.7,2.8,3.3,4.3,5,0,.1.2.2.3.3h0c1.3,1.5,2.5,2.9,3.8,4.3,4.5,5,9.2,10,13.9,14.9l295.8-288.1c-1.9-2-3.8-4.1-5.4-6.3Z"/>
      <path class="cls-5" d="M305.9-259.2L159.5,126.9c8.4,3.2,17,6.2,25.7,8.9h0c.9.3,1.8.6,2.7.8,1.2.4,2.4.8,3.6,1.1h0c8.6,2.6,17.3,4.9,26.1,7l96.4-401.5c-2.8-.7-5.4-1.5-8.1-2.5Z"/>
      <path class="cls-9" d="M314.8-256.5l-90.7,402.8c8.7,2,17.5,3.7,26.3,5.1h0c1,.2,2.1.3,3.2.5,1.2.2,2.4.4,3.6.6h0c8.8,1.3,17.7,2.4,26.5,3.3l39.5-411c-2.8-.3-5.6-.7-8.3-1.3Z"/>
      <path class="cls-8" d="M289.5-268.2L41.4,61.8c7.2,5.4,14.7,10.7,22.2,15.7h0c1,.7,2.1,1.4,3.1,2.1.8.5,1.5,1,2.3,1.5h0c7.7,4.9,15.5,9.7,23.4,14.2l204.2-358.9c-2.5-1.4-4.8-2.9-7.1-4.6Z"/>
      <path class="cls-3" d="M297.4-263.1L98,98.5c8,4.4,16.2,8.6,24.4,12.5h0c1,.5,2,.9,2.9,1.4,1,.5,1.9.9,2.9,1.4h0c8.3,3.8,16.7,7.4,25.1,10.8l151.6-384.1c-2.6-1-5.2-2.2-7.7-3.6Z"/>
    </g>
  </g>
</svg>