<?xml version="1.0" encoding="UTF-8"?>
<svg id="Ebene_1" data-name="Ebene 1" xmlns="http://www.w3.org/2000/svg" xmlns:xlink="http://www.w3.org/1999/xlink" version="1.1" viewBox="0 0 1000 750">
  <defs>
    <style>
      .cls-1 {
        fill: url(#linear-gradient);
      }

      .cls-1, .cls-2, .cls-3, .cls-4, .cls-5, .cls-6, .cls-7, .cls-8 {
        fill-rule: evenodd;
        stroke-width: 0px;
      }

      .cls-2 {
        fill: url(#linear-gradient-3);
      }

      .cls-3 {
        fill: url(#linear-gradient-2);
      }

      .cls-4 {
        fill: url(#linear-gradient-4);
      }

      .cls-5 {
        fill: url(#linear-gradient-5);
      }

      .cls-6 {
        fill: url(#linear-gradient-7);
      }

      .cls-7 {
        fill: url(#linear-gradient-6);
      }

      .cls-8 {
        fill: url(#Unbenannter_Verlauf_6);
      }
    </style>
    <linearGradient id="linear-gradient" x1="-1596.2" y1="692.2" x2="-885.8" y2="692.2" gradientUnits="userSpaceOnUse">
      <stop offset="0" stop-color="#791e00"/>
      <stop offset=".4" stop-color="#a72607"/>
      <stop offset=".8" stop-color="#d32e0f"/>
      <stop offset="1" stop-color="#e53212"/>
    </linearGradient>
    <linearGradient id="linear-gradient-2" x1="-1657.7" y1="634.8" x2="-824.5" y2="634.8" gradientUnits="userSpaceOnUse">
      <stop offset="0" stop-color="#d77e16"/>
      <stop offset=".1" stop-color="#f4c85d"/>
      <stop offset=".2" stop-color="#ad5e00"/>
      <stop offset=".3" stop-color="#ad5e00"/>
      <stop offset=".4" stop-color="#e0aa05"/>
      <stop offset=".5" stop-color="#e9b500"/>
      <stop offset=".6" stop-color="#e9b51c"/>
      <stop offset=".7" stop-color="#ffefae"/>
      <stop offset=".8" stop-color="#d7aa4d"/>
      <stop offset=".8" stop-color="#d6a420"/>
      <stop offset="1" stop-color="#f1b75a"/>
    </linearGradient>
    <linearGradient id="linear-gradient-3" x1="-1765.3" y1="-387.3" x2="-841.5" y2="-387.3" xlink:href="#linear-gradient-2"/>
    <linearGradient id="linear-gradient-4" x1="1246.3" y1="1224.4" x2="2225.5" y2="1224.4" xlink:href="#linear-gradient-2"/>
    <linearGradient id="linear-gradient-5" x1="1529.7" y1="-5.6" x2="2502.8" y2="-5.6" xlink:href="#linear-gradient-2"/>
    <linearGradient id="linear-gradient-6" x1="1641.1" y1="401.1" x2="2384" y2="401.1" xlink:href="#linear-gradient-2"/>
    <linearGradient id="linear-gradient-7" x1="1634.8" y1="303.2" x2="2397.7" y2="303.2" xlink:href="#linear-gradient-2"/>
    <linearGradient id="Unbenannter_Verlauf_6" data-name="Unbenannter Verlauf 6" x1="10.4" y1="319.1" x2="989.6" y2="319.1" gradientUnits="userSpaceOnUse">
      <stop offset="0" stop-color="#d77e16"/>
      <stop offset=".2" stop-color="#f4c85d"/>
      <stop offset=".2" stop-color="#cf8a00"/>
      <stop offset=".3" stop-color="#d17200"/>
      <stop offset=".4" stop-color="#e0aa05"/>
      <stop offset=".5" stop-color="#e9b500"/>
      <stop offset=".6" stop-color="#e9b51c"/>
      <stop offset=".7" stop-color="#ffefae"/>
      <stop offset=".8" stop-color="#d7aa4d"/>
      <stop offset=".8" stop-color="#d6a420"/>
      <stop offset="1" stop-color="#f1b75a"/>
    </linearGradient>
  </defs>
  <g>
    <path class="cls-1" d="M-1324.9,850.5c2.9-2.6,6.1-5.1,9.3-7.3l-32.9-284.6c-32.2-13.8-67.2-24.2-102.4-24.8-44-.7-86,13-114.3,48.1-33.5,41.6-37,99.4-24.1,149.5,8.6,33.3,24.1,65.1,43.3,93.6,11.2-.6,22.4.8,33.2,4,13.8,4.2,26.9,11.5,37.3,21.6,40.1-36.8,111.1-38.7,150.7-.2ZM-936,825c19.2-28.5,34.7-60.3,43.3-93.6,12.9-50.1,9.4-107.9-24.1-149.5-28.3-35.1-70.3-48.8-114.4-48.1-35.3.5-70.2,11-102.4,24.8l-32.9,284.6c3.3,2.2,6.4,4.7,9.3,7.3,39.6-38.5,110.6-36.6,150.7.2,10.3-10.1,23.5-17.5,37.3-21.6,10.8-3.2,22-4.6,33.2-4Z"/>
    <path class="cls-3" d="M-1506.9,962.1v36.2h531.7v-36.2h-531.7ZM-883.4,817.7c1.6-7-2.9-14-9.9-15.6-7-1.6-14,2.9-15.6,9.9-1.6,7,2.9,14,9.9,15.6,7,1.6,14-2.9,15.6-9.9ZM-855.6,778.2c2-8.8-3.6-17.7-12.4-19.6-8.8-2-17.6,3.6-19.6,12.5-2,8.8,3.6,17.6,12.4,19.6,8.8,2,17.6-3.6,19.6-12.5ZM-836.1,728.9c2.2-10.1-4.2-20.2-14.2-22.4-10.1-2.2-20.2,4.2-22.4,14.2-2.3,10.1,4.2,20.2,14.2,22.4,10.1,2.3,20.2-4.2,22.4-14.2ZM-825,670c2.7-12.2-5-24.3-17.2-27.1-12.2-2.7-24.3,5-27,17.2-2.7,12.2,5,24.3,17.2,27.1,12.2,2.7,24.3-5,27.1-17.2ZM-1118.1,510.6c-7.2,0-13.1,5.9-13.1,13.1s5.8,13.1,13.1,13.1,13.1-5.8,13.1-13.1-5.9-13.1-13.1-13.1ZM-1073.5,492c-9.1,0-16.4,7.4-16.4,16.4s7.4,16.4,16.4,16.4,16.4-7.4,16.4-16.4-7.4-16.4-16.4-16.4ZM-1021,482.1c-10.4,0-18.8,8.4-18.8,18.8s8.4,18.8,18.8,18.8,18.8-8.4,18.8-18.8-8.4-18.8-18.8-18.8ZM-961,484.4c-12.5,0-22.7,10.1-22.7,22.7s10.1,22.7,22.7,22.7,22.7-10.1,22.7-22.7-10.2-22.7-22.7-22.7ZM-899.9,512.2c-14.8,0-26.8,12-26.8,26.8s12,26.8,26.8,26.8,26.8-12,26.8-26.8-12-26.8-26.8-26.8ZM-857.6,572c-14.8,0-26.8,12-26.8,26.8s12,26.8,26.8,26.8,26.8-12,26.8-26.8-12-26.8-26.8-26.8ZM-1598.7,817.7c1.5,6.9,8.6,11.5,15.6,9.9,7-1.6,11.4-8.6,9.8-15.6-1.5-6.9-8.5-11.5-15.5-9.9-7.1,1.6-11.5,8.5-9.9,15.6ZM-1626.6,778.2c2,8.8,10.8,14.4,19.6,12.4,8.9-2,14.5-10.8,12.6-19.6-2.1-8.8-10.9-14.4-19.8-12.5-8.7,2-14.4,10.9-12.5,19.6ZM-1646,728.9c2.2,10,12.3,16.5,22.3,14.2,10.1-2.2,16.7-12.3,14.4-22.4-2.3-10-12.4-16.5-22.5-14.3-10.1,2.2-16.6,12.3-14.3,22.4ZM-1657.2,670c2.8,12.1,14.9,19.9,27,17.2,12.2-2.7,20-14.8,17.3-27-2.8-12.1-14.9-19.9-27.1-17.2-12.2,2.7-19.9,14.9-17.3,27.1ZM-1364,510.6c-7.2,0-12.9,5.9-12.9,13.1s5.7,13.1,12.9,13.1,13.1-5.8,13.1-13.1-5.9-13.1-13.1-13.1ZM-1408.4,492c-9.2,0-16.5,7.3-16.5,16.4s7.3,16.4,16.5,16.4,16.4-7.4,16.4-16.4-7.3-16.4-16.4-16.4ZM-1461.1,482.1c-10.3,0-18.8,8.5-18.8,18.8s8.5,18.8,18.8,18.8,18.9-8.3,18.9-18.8-8.5-18.8-18.9-18.8ZM-1521.2,484.4c-12.5,0-22.5,10.2-22.5,22.7s10,22.7,22.5,22.7,22.7-10.1,22.7-22.7-10.2-22.7-22.7-22.7ZM-1582.2,512.2c-14.7,0-26.7,12.1-26.7,26.8s12,26.8,26.7,26.8,27-12,27-26.8-12.2-26.8-27-26.8ZM-1174.4,519.1c-16.7,19.5-40.9,30.7-66.7,30.7s-50-11.2-66.7-30.7l-27,11.3,35.1,303.9c35.1-15.9,82-15.9,117.2,0l35.1-303.9-27-11.3ZM-1250.1,452.3v-52.4l1.9-.2c2.4-.3,4.8-.4,7.2-.4s5.1.2,7.7.5l1.9.2v52.3h52.1s.2,1.9.2,1.9c.3,2.5.4,4.9.4,7.4s-.2,5-.5,7.5l-.2,1.9h-123.3s-.2-1.9-.2-1.9c-.3-2.5-.5-5-.5-7.5s.2-4.9.4-7.4l.2-1.9h52.6ZM-1305.2,311.2v57.7c17.9-12.3,24.5-15.2,48.4-15.2h2.1v38.8l-1.7.4c-32.4,7.1-55.6,36-55.6,69.2s31.8,70.9,70.9,70.9,70.9-31.8,70.9-70.9-23.2-62.1-55.6-69.2l-1.7-.4v-38.8h2.1c23.9,0,30.6,3,48.4,15.2v-57.7c-17.8,12.3-24.5,15.3-48.4,15.3h-2.1v-2.1c0-26.1,1.9-33.1,15.5-53h-58.2c13.5,19.9,15.5,26.9,15.5,53v2.1h-2.1c-23.9,0-30.6-3-48.4-15.3ZM-1081.4,875.2c8,0,16.9,1.5,24.1,5.2,5.3,2.7,10.8,7.3,10.8,13.8s-5.5,11.1-10.8,13.8c-7.2,3.7-16.1,5.2-24.1,5.2s-16.9-1.5-24.1-5.2c-5.3-2.7-10.8-7.3-10.8-13.8s5.5-11.1,10.8-13.8c7.2-3.7,16.1-5.2,24.1-5.2ZM-1400.6,875.2c8,0,16.9,1.5,24.1,5.2,5.3,2.7,10.8,7.3,10.8,13.8s-5.5,11.1-10.8,13.8c-7.2,3.7-16.1,5.2-24.1,5.2s-16.9-1.5-24.1-5.2c-5.3-2.7-10.8-7.3-10.8-13.8s5.5-11.1,10.8-13.8c7.2-3.7,16.1-5.2,24.1-5.2ZM-941,876.3c2.5,3.4,3.8,7.5,3.3,11.8-1.2,11.2-12.6,18.6-23,20.1h-.7c0,0-.6-.2-.6-.2-5.3-2.7-10.8-7.3-10.8-13.8,0-12.9,19.8-18,29.8-18.7h1.2c0,0,.7.9.7.9ZM-1521.5,908.2c-10.3-1.5-21.8-8.9-23-20.1-.5-4.3.8-8.3,3.3-11.8l.7-1h1.2c9.9.9,29.7,5.9,29.7,18.8s-5.5,11.1-10.8,13.8l-.6.3h-.7ZM-1241,875.2c8,0,16.9,1.5,24.1,5.2,5.3,2.7,10.8,7.3,10.8,13.8s-5.5,11.1-10.8,13.8c-7.2,3.7-16.1,5.2-24.1,5.2s-16.9-1.5-24.1-5.2c-5.3-2.7-10.8-7.3-10.8-13.8s5.5-11.1,10.8-13.8c7.2-3.7,16.1-5.2,24.1-5.2ZM-1075.9,839.5h0c-.9,0-1.8-.1-2.6-.2h0c-.9,0-1.8,0-2.7,0h0c-.9,0-1.8,0-2.7,0h0c-.9,0-1.8,0-2.7,0-.9,0-1.8,0-2.6.1h0c-.9,0-1.7.1-2.6.2-25,2.1-48.7,13.4-62.9,34.6l-1.8,2.7-1.8-2.7c-15.5-23-46.6-32.9-73-34.6-1,0-2-.1-3-.2h0c-1,0-2.1,0-3.1-.1h0c-1,0-2.1,0-3.1,0h0c-1,0-2.1,0-3.1,0h0c-1,0-2.1,0-3.2.1h0c-1,0-2.1,0-3.1.2-21.8,1.4-45.8,8.2-62.5,22.9-.7.6-1.3,1.2-2,1.8-.6.6-1.3,1.2-1.9,1.9-.6.6-1.2,1.3-1.8,1.9-.6.6-1.1,1.3-1.7,2-.6.7-1.1,1.4-1.6,2.1-.5.7-1,1.4-1.5,2.1l-1.8,2.7-1.8-2.7c-.5-.8-1-1.5-1.6-2.2-14.4-19.8-37.3-30.3-61.3-32.4-.9,0-1.7-.1-2.6-.2h0c-.9,0-1.8,0-2.6-.1h0c-.9,0-1.8,0-2.7,0h0c-.9,0-1.8,0-2.7,0h0c-.9,0-1.8,0-2.7,0-.9,0-1.8,0-2.7.1-.9,0-1.8.1-2.7.2-.9,0-1.8.2-2.7.3-.9.1-1.8.2-2.7.4-.9.1-1.8.3-2.7.4-.9.2-1.8.3-2.7.5-.9.2-1.8.4-2.6.6-.9.2-1.7.4-2.6.6-.9.2-1.7.4-2.6.7-.9.2-1.7.5-2.6.8-.8.3-1.7.5-2.5.8-16.6,5.6-31.8,15.6-42.1,29.9l-1.9,2.6-1.7-2.8c-7.1-11.9-18.9-21-31.6-26.3-.5-.2-1-.4-1.6-.6-.5-.2-1.1-.4-1.6-.6-.5-.2-1.1-.4-1.6-.6-.5-.2-1.1-.4-1.6-.5-.5-.2-1.1-.4-1.6-.5-.5-.2-1.1-.3-1.7-.5-.6-.2-1.1-.3-1.7-.4-.6-.1-1.1-.3-1.7-.4-3.5-.8-7-1.4-10.6-1.7-.6,0-1.1-.1-1.7-.1h-.1c-.6,0-1.2,0-1.7-.1h0s0,0,0,0h0c-.6,0-1.2,0-1.8,0h0c-.6,0-1.2,0-1.8,0h0c-.6,0-1.2,0-1.9,0h0c-.6,0-1.2,0-1.9,0h0c-.6,0-1.2,0-1.8,0-9.4.6-18.5,2.7-27.2,6.2,10.4,6.3,19.7,15,27.6,24.1l1,1.2-.9,1.3c-2.6,4.1-3.9,8.9-3.4,13.8,1.4,13.4,14.5,22.4,26.9,24.2l2.4.3.5,1.1c4.9,10.5,8.9,21.6,11.8,32.8h532.9c2.9-11.3,6.8-22.3,11.7-32.8l.5-1.1,2.4-.3c12.5-1.8,25.5-10.9,26.9-24.2.5-4.9-.7-9.7-3.4-13.8l-.9-1.3,1-1.2c7.9-9.1,17.2-17.8,27.6-24.1-8.1-3.3-16.6-5.3-25.3-6.1-.6,0-1.2,0-1.8-.1h0c-.6,0-1.2,0-1.8,0h0c-.6,0-1.2,0-1.8,0h0c-.6,0-1.2,0-1.9,0h0c-.6,0-1.2,0-1.9,0-.6,0-1.2,0-1.8,0h0c-15.3.8-30.4,5.9-42.7,15.1l-.4.3c-6.2,4.7-11.7,10.5-15.7,17.1l-1.7,2.8-1.9-2.6c-10.3-14.3-25.5-24.3-42.1-29.9-.8-.3-1.7-.6-2.6-.8-.9-.3-1.7-.5-2.6-.8-.9-.2-1.7-.5-2.6-.7-.9-.2-1.7-.4-2.6-.6-.9-.2-1.8-.4-2.6-.6-.9-.2-1.8-.3-2.7-.5-.9-.2-1.8-.3-2.7-.4-.9-.1-1.8-.3-2.7-.4-.9-.1-1.8-.2-2.7-.3-.9,0-1.7-.2-2.6-.2ZM-1624.4,572c-14.8,0-26.7,12-26.7,26.8s11.9,26.8,26.7,26.8,26.7-12.1,26.7-26.8-12-26.8-26.7-26.8Z"/>
  </g>
  <path class="cls-2" d="M-1553.4-690.6c23.6,0,42.8,19.2,42.8,42.8s-19.2,42.8-42.8,42.8-42.8-19.2-42.8-42.8,19.2-42.8,42.8-42.8h0ZM-1053.3-690.6c23.6,0,42.8,19.2,42.8,42.8s-19.2,42.8-42.8,42.8-42.8-19.2-42.8-42.8,19.2-42.8,42.8-42.8ZM-1725.5-539.7c21.9,0,39.7,17.8,39.7,39.7s-17.8,39.7-39.7,39.7-39.7-17.8-39.7-39.7,17.8-39.7,39.7-39.7ZM-881.2-539.7c21.9,0,39.7,17.8,39.7,39.7s-17.8,39.7-39.7,39.7-39.7-17.8-39.7-39.7,17.8-39.7,39.7-39.7ZM-1304.7-658l-82.2,350.1-147.4-296.4-8.3,330.8-154.1-193.1c53.2,149.1,105.6,290.9,127.7,447.8,16-11.2,37.9-17.9,53-22.6,19.5-6.1,39.3-10.8,59.3-14.7,50.5-9.8,102-13.9,153.4-13.9s102.9,4.1,153.4,13.9c20,3.9,39.8,8.6,59.3,14.7,15,4.7,36.8,11.4,52.8,22.6,22.2-156.9,74.4-298.7,127.8-447.8l-154.1,193.1-8.4-330.8-147.5,296.4-82.3-350.1-.8-3.6h-.7l-1,3.6ZM-1303.4-755.8c25.2,0,45.7,20.5,45.7,45.7s-20.5,45.7-45.7,45.7-45.7-20.5-45.7-45.7,20.5-45.7,45.7-45.7Z"/>
  <path class="cls-4" d="M2137.2,1453c9.4-52.9-39.6-90.6-52.1-38.6-36.3-46.5,10.5-104.9,50.2-67.2,10.5,10,16.9,22.4,20.4,35.8,5-72.4-25.4-146.4-90-184.5-62.3-36.7-130-30.1-198.4-34.4-45.2-2.8-83.2-9.5-106.9-29.6,13.8,23.3,22.1,53.1,22.1,87.7s-4.5,53.3-12.3,78c2.5-1.8,5.2-3.4,8.1-4.9,48.8-24.8,77,44.5,28.9,78.7,2.9-53.7-55.6-31-61.1,23.2,63.2.4,127.2,4.5,190.6,13-2.1-51.6-54.8-78-57.9-25.7-43.9-39.5-8-105.1,37.7-74.9,2.5,1.6,4.8,3.4,7,5.3-1.7-17.8-1.7-34.9-.3-47.3,4.3-37.7,18.8-49.9,48.6-67.9,25,24.3,36.3,39.5,31.9,77.2-1.4,12.4-5.2,29-11,46,2.5-1.3,5.2-2.5,8-3.6,51.3-19.1,71.4,53,19.7,81.5,8.8-51.8-48.9-37.8-62.4,12.4,56.7,8.4,112.7,20.3,167.1,36.2l12.1,3.5ZM1735.9,1195c-6.2,8.4-10.3,22.5-10.3,40.4s4.1,39.4,10.3,47.8c6.1-8.4,10.3-29.9,10.3-47.8s-4.1-32.1-10.3-40.4ZM2127.5,1567.7c-1,3.4-4.2,5.9-7.9,5.9s-1.4,0-2-.3h0c-123-34.9-254.2-50-381.7-50s-258.7,15.1-381.7,50h0c-.7.1-1.3.2-2,.2-3.9,0-7.2-2.7-8.1-6.4l-3.1-9.5c-.7,0-1.5,0-2.2-.1-16.6-1.7-25.9-20.8-29.6-35-3.5-13.4-4.5-32.6,6.6-42.9-23.3-72.1-46.3-144.3-69.5-216.9,0,0,20,3,39.3,15.7,2.2-22,8.4-42.9,20.2-61.6-1.7.4-3.5.7-5.3.7-11.6,0-20.7-9.4-20.7-20.9s9.1-20.9,20.7-20.9,21.1,9.3,21.2,20.8c6.1-6.4,13.2-12.5,21.2-18.2,4.8-3.4,9.7-6.6,14.7-9.5-9.8-1.7-17.5-10.3-17.5-20.6s9.6-20.9,21.2-20.9,20.6,9.4,20.6,20.9-.8,6.4-2.1,9.2c14.6-6.5,29.8-11.5,45.4-15.2-6.5-3.5-11.1-10.5-11.1-18.4,0-11.5,9.5-20.9,20.8-20.9s21.2,9.4,21.2,20.9-1.8,9.6-4.7,13.2c16.9-2.7,34-4.3,51.3-5.3-4.7-3.3-7.7-8.8-7.7-15.1,0-10.1,8-18.3,18.4-18.3s18,8.2,18,18.3-2.6,10.8-6.6,14.2c18.7-.5,37.4-.4,55.8-.3h1.9c-3.6-3-5.8-7.5-5.8-12.6,0-9.1,7.1-16.4,16.2-16.4s16.8,7.3,16.8,16.4-2.6,10-6.6,13c26.6.5,54.5.5,75-8.3,34.1-14.5,46.8-85.2.9-74.4-9,2.1-15.4,11.5-14.4,30.2-48.1-34.2-19.9-103.5,28.9-78.7,5.1,2.6,9.8,5.8,13.9,9.4-7.1-17.2-11.7-36.5-11.7-54.2,0-36.9,20-62.2,40.2-79.4,20.1,17.3,40.2,42.5,40.2,79.4s-4.6,37.1-11.7,54.2c4.2-3.6,8.8-6.8,13.9-9.4,24.4-12.4,43.7-1.3,50.8,17.2,7.1,18.5,2.1,44.4-21.9,61.5,1-18.6-5.4-28.1-14.4-30.2-45.9-10.7-33.1,59.9,1,74.4,20.5,8.8,48.4,8.8,75,8.3-3.9-3-6.3-7.7-6.3-13,0-9.1,7.3-16.4,16.4-16.4s16.4,7.3,16.4,16.4-2.3,9.6-5.9,12.6h2.2c18.2-.1,36.8-.2,55.5.3-4.1-3.4-6.7-8.5-6.7-14.2,0-10.1,8.2-18.3,18.3-18.3s18.3,8.2,18.3,18.3-3.1,11.7-7.9,15.1c17.2.9,34.3,2.5,51.2,5.3-2.9-3.6-4.7-8.2-4.7-13.2,0-11.5,9.4-20.9,20.9-20.9s20.9,9.4,20.9,20.9-4.5,14.9-11,18.4c15.5,3.8,30.7,8.7,45.3,15.2-1.3-2.8-2.1-5.9-2.1-9.1,0-11.6,9.4-20.9,20.9-20.9s20.9,9.4,20.9,20.9-7.5,18.9-17.4,20.6c5,2.9,9.9,6.1,14.7,9.5,8.1,5.7,15.1,11.8,21.3,18.3h0c0-11.6,9.4-21,20.9-21s20.9,9.4,20.9,20.9-9.4,20.9-20.9,20.9-3.5-.2-5.1-.6c11.8,18.7,18,39.6,20.2,61.5,19.2-12.7,39.3-15.7,39.3-15.7-23.2,72.8-46.2,144.8-69.5,216.9,11.1,10.3,10,29.5,6.6,42.9-3.7,14.2-13,33.3-29.6,35-.8,0-1.5.1-2.2.1l-3.3,10h0ZM2135.4,1486.3l-42.7,11.5c-3.9,1.1-4.9,4.5-2.1,7.7l30.2,34.5c24.8,28.4,49.6-63.2,14.6-53.7ZM1336.3,1486.3l42.7,11.5c3.9,1.1,4.9,4.5,2.1,7.7l-30.1,34.5c-24.8,28.4-49.6-63.2-14.6-53.7ZM2056.7,1467.6c1.5-6.1-2.3-12.4-8.4-13.9-6.1-1.5-12.4,2.2-13.9,8.3-1.5,6.2,2.1,12.6,8.4,13.8,6.1,1.7,12.4-2.1,13.9-8.3ZM2046.8,1516.3c1.5-6.1-2.4-12.3-8.4-13.8-6.1-1.5-12.4,2.2-13.9,8.3-1.5,6.2,2.1,12.6,8.4,13.8,6.2,1.7,12.4-2.1,13.9-8.3ZM2019,1473.1c-6.1-1.5-12.4,2.3-13.9,8.4-1.5,6.1,2.2,12.4,8.3,13.9,6.2,1.5,12.6-2.1,13.8-8.4,1.7-6.1-2.1-12.4-8.3-13.9ZM2067.7,1483c-6.1-1.5-12.3,2.4-13.8,8.4-1.5,6.1,2.2,12.4,8.3,13.9,6.2,1.5,12.6-2.1,13.8-8.4,1.7-6.2-2.1-12.4-8.3-13.9ZM1414.9,1467.6c-1.3-6.1,2.3-12.4,8.5-13.9,6.2-1.6,12.5,2.2,13.8,8.3,1.6,6.2-2,12.6-8.4,13.8-6,1.7-12.4-2.1-13.9-8.3ZM1424.8,1516.3c-1.5-6.1,2.6-12.4,8.4-13.8,6.2-1.5,12.5,2.2,14.1,8.3,1.3,6.2-2.3,12.6-8.4,13.9-6.1,1.7-12.6-2.1-14.1-8.3ZM1452.6,1473.1c6.2-1.5,12.5,2.3,14.1,8.4,1.4,6.1-2.2,12.4-8.4,13.9-6.3,1.5-12.6-2.1-13.7-8.4-2-6.1,2-12.4,8-13.9ZM1404.1,1483c6.1-1.5,12.3,2.4,13.9,8.4,1.5,6.1-2.2,12.4-8.4,13.9-6.1,1.5-12.5-2.1-13.7-8.4-2-6.1,2.1-12.4,8.3-13.9ZM1851.1,1440.6c.8-6.2-3.8-12-10-12.8-6.2-.8-12.1,3.6-12.9,9.9-.8,6.4,3.6,12.3,10,12.8,6.3,1,12.1-3.6,12.9-9.8ZM1846.9,1490.1c.8-6.2-3.8-12-10-12.8-6.2-.8-12.1,3.6-12.9,9.9-.8,6.3,3.6,12.3,10,12.8,6.3,1,12.1-3.6,12.9-9.9ZM1814.3,1450.4c-6.2-.8-12,3.8-12.8,10-.8,6.2,3.6,12.1,9.9,12.9,6.4.8,12.3-3.5,12.8-10,1-6.3-3.6-12.1-9.8-12.9ZM1863.8,1454.6c-6.2-.8-12,3.8-12.8,10-.8,6.2,3.6,12.1,9.8,12.9,6.3.8,12.3-3.6,12.8-10,1-6.3-3.6-12.1-9.9-12.9ZM1620.5,1440.6c-.6-6.2,3.8-12,10.1-12.8,6.3-.8,12.1,3.6,12.8,9.9.9,6.4-3.4,12.3-10,12.8-6.2,1-12-3.6-12.9-9.8ZM1624.7,1490.1c-.9-6.2,4-12,10-12.8,6.3-.8,12.1,3.6,13,9.8.6,6.3-3.8,12.3-10,12.8-6.3,1-12.3-3.6-13-9.9ZM1657.3,1450.4c6.3-.8,12.1,3.8,13,10,.7,6.2-3.6,12.1-10,12.9-6.4.8-12.3-3.5-12.6-10-1.2-6.3,3.4-12.1,9.6-12.9ZM1608,1454.6c6.2-.8,11.9,3.8,12.8,10,.9,6.2-3.6,12.1-10,12.9-6.2.8-12.1-3.6-12.6-10-1.2-6.3,3.5-12.1,9.8-12.9ZM1943.8,1441.8c-28.5-3.7-53.4,7.4-55.6,24.6-2.2,17.2,19.1,34.2,47.6,37.9,28.5,3.7,53.4-7.4,55.7-24.6,2.2-17.3-19.1-34.2-47.6-37.9ZM1528,1441.8c28.5-3.7,53.4,7.4,55.6,24.6,2.2,17.2-19.1,34.2-47.7,37.9-28.5,3.7-53.4-7.4-55.6-24.6-2.2-17.3,19.1-34.2,47.7-37.9ZM1684.8,1459.4l43.7-25.6c4-2.4,10.6-2.4,14.6,0l43.7,25.6c4,2.4,4,6.2,0,8.6l-43.7,25.6c-4,2.4-10.6,2.4-14.6,0l-43.7-25.6c-4-2.4-4-6.2,0-8.6ZM1315.9,1383.2c3.4-13.5,9.9-25.9,20.3-35.9,39.9-37.7,86.6,20.7,50.3,67.2-12.4-52-61.5-14.3-52.2,38.7l12.2-3.6c54.4-15.8,110.4-27.7,167-36.2-13.5-50.2-71.1-64.2-62.4-12.4-51.7-28.5-31.6-100.6,19.7-81.5,2.8,1,5.4,2.2,8,3.6-5.8-17-9.6-33.6-11-46-4.3-37.7,7-52.8,31.9-77.2,29.8,18,44.3,30.2,48.6,67.9,1.4,12.4,1.5,29.4-.3,47.3,2.2-1.9,4.5-3.6,7-5.3,45.7-30.2,81.5,35.4,37.7,74.9-3.2-52.2-55.8-25.9-57.9,25.7,63.4-8.4,127.4-12.5,190.6-13-5.5-54.2-63.8-76.9-61-23.2-48.1-34.2-19.9-103.5,28.9-78.7,2.9,1.5,5.6,3.1,8.1,4.9-7.8-24.7-12.3-52.6-12.3-78s8.3-64.5,22.1-87.7c-23.7,20.1-61.6,26.7-107,29.6-68.5,4.3-135.9-2.3-198.3,34.4-64.6,38.1-95.1,112.1-90.1,184.6Z"/>
  <g>
    <path class="cls-5" d="M1839.3,40.7c41.5,0,79.8,14.1,110.2,37.7-1.4-16.3-2.1-32.4-2.1-47.7s.1-10.2.4-15c-65.2-28.1-114-24.2-143.8-5.8-15.9,9.9-26.4,24.9-31.2,43.4,20.6-8.2,43-12.7,66.4-12.7h0ZM1794.5-61.7v-.7c0-7.4-6-13.4-13.3-13.4s-13.4,6-13.4,13.4.8,5.1,2,7.1c7-6.1,16.2-8.2,24.7-6.5ZM2060.7-34.3l-32.6,32.6,42.1,42.1c0-3.2,0-6.4,0-9.7,0-21.4-2.4-44.6-9.6-65.1ZM2053.5-50.8c-.8-1.4-1.6-2.8-2.4-4.1-7.5-12.1-19.6-24.2-34.8-24.2s-27.3,12.1-34.8,24.2c-.8,1.3-1.6,2.7-2.4,4.1l37.2,37.2,37.2-37.2ZM1971.8-34.3c-7.2,20.4-9.6,43.6-9.6,65.1s0,6.4,0,9.7l42.1-42.1-32.6-32.6ZM1963.9,62.5l52.3,52.3,52.3-52.3-52.3-52.3-52.3,52.3ZM1965.2,87.5c.3,3.4.7,6.8,1.1,10.2,2.3,19.4,5.3,38.7,9.4,57.7l28.7-28.7-39.2-39.2ZM1982.3,172.5h67.8l-33.9-33.9-33.9,33.9ZM1984.3,189.3c17,54.6,47,54.6,63.9,0h-63.9ZM2056.9,155.5c4.1-19.1,7.1-38.4,9.4-57.7.4-3.4.8-6.8,1.1-10.2l-39.2,39.2,28.7,28.7ZM2238-61.7v-.7c0-7.4,6-13.4,13.3-13.4s13.4,6,13.4,13.4-.8,5.1-2.1,7.1c-7-6.1-16.2-8.2-24.7-6.5ZM2305.9,106.2c-10.8-.8-18.9-10.2-18.1-21,.8-10.8,10.2-18.9,21-18,10.8.8,18.9,10.2,18,21-.8,10.8-10.2,18.9-21,18ZM2300.3,150c-10-.8-17.5-9.4-16.7-19.5.7-9.8,9.5-17.4,19.4-16.7,10,.8,17.5,9.6,16.7,19.4-.8,10-9.5,17.5-19.4,16.7ZM2286.7,189.1c-9.2-.7-16.1-8.8-15.4-17.9.7-9.4,8.7-16.2,17.9-15.5,9.2.7,16.1,8.6,15.4,18-.7,9.1-8.7,16-17.9,15.4ZM2265.2,221.1c-8.4-.6-14.7-8-14-16.5.6-8.4,7.9-14.6,16.3-13.9,8.4.6,14.7,7.8,14,16.2-.6,8.5-8,14.8-16.3,14.2ZM2240,246.5c-7.6-.6-13.3-7-12.7-14.9.5-7.2,7.2-13.1,14.8-12.5,7.6.6,13.2,7.4,12.7,14.6-.6,7.9-7.2,13.4-14.8,12.8ZM2230.3-45.9c-6.7,7.4-6.1,18.9,1.4,25.6,7.4,6.7,18.9,6.1,25.6-1.4,6.7-7.4,6.1-18.9-1.4-25.6-7.5-6.7-18.9-6.1-25.6,1.4ZM2192.2-61.2c-6.2,6.8-5.6,17.4,1.3,23.6,6.8,6.2,17.4,5.6,23.6-1.2,6.1-6.8,5.6-17.4-1.3-23.6-6.9-6.2-17.4-5.6-23.6,1.2ZM2265.9-17.8c-6.7,7.4-6.1,18.9,1.4,25.6,7.4,6.7,18.9,6.1,25.6-1.4,6.7-7.4,6.1-18.9-1.3-25.6-7.5-6.7-18.9-6.1-25.6,1.3ZM2300.2,57.4c-10.8-.8-18.9-10.2-18-21,.8-10.8,10.2-18.9,21-18,10.8.8,18.9,10.2,18,21-.8,10.8-10.2,18.9-21,18ZM2150.9-57.6c-6.2,6.8-5.6,17.4,1.3,23.6,6.8,6.2,17.4,5.6,23.6-1.2,6.1-6.8,5.6-17.4-1.3-23.6-6.9-6.2-17.4-5.6-23.6,1.2ZM2113.1-49.1c-5.6,6.2-5.1,15.8,1.1,21.4,6.2,5.6,15.8,5.1,21.3-1.1,5.6-6.2,5.1-15.8-1.1-21.4-6.2-5.6-15.8-5.1-21.4,1.1ZM2472.8,100c-10.8,0-19.6-8.8-19.6-19.6s8.8-19.6,19.6-19.6,19.6,8.8,19.6,19.6-8.8,19.6-19.6,19.6ZM2470.5,144.1c-10,0-18.1-8.1-18.1-18.1s8.1-18.1,18.1-18.1,18.1,8.2,18.1,18.1-8.1,18.1-18.1,18.1ZM2459.9,184.1c-9.2,0-16.7-7.5-16.7-16.7s7.5-16.8,16.7-16.8,16.7,7.4,16.7,16.8-7.5,16.7-16.7,16.7ZM2440.9,217.6c-8.4,0-15.2-6.9-15.2-15.4s6.8-15.1,15.2-15.1,15.2,6.7,15.2,15.1-6.8,15.4-15.2,15.4ZM2417.7,244.9c-7.6,0-13.8-6-13.8-13.9s6.2-13.6,13.8-13.6,13.8,6.4,13.8,13.6-6.2,13.9-13.8,13.9ZM2387.9-48.2c-6.1,7.9-4.6,19.3,3.3,25.4,7.9,6.1,19.3,4.6,25.4-3.3,6.1-7.9,4.6-19.3-3.3-25.4-8-6.1-19.3-4.7-25.4,3.3ZM2350.5-64.9c-5.6,7.3-4.3,17.8,3,23.4,7.3,5.6,17.8,4.3,23.4-3,5.6-7.3,4.2-17.8-3-23.4-7.3-5.6-17.8-4.3-23.4,3ZM2312.9-73.2c-5.1,6.7-3.9,16.2,2.7,21.4,6.7,5.1,16.2,3.9,21.4-2.8,5.1-6.7,3.9-16.2-2.8-21.4-6.7-5.1-16.2-3.9-21.3,2.8ZM2276.5-72.8c-4.7,6-3.5,14.7,2.5,19.3,6,4.6,14.7,3.5,19.3-2.5,4.6-6,3.5-14.7-2.5-19.3-6-4.7-14.7-3.5-19.3,2.5ZM2423.6-20.6c-6.1,7.9-4.6,19.3,3.3,25.4,7.9,6.1,19.3,4.6,25.4-3.3,6.1-7.9,4.6-19.3-3.3-25.4-8-6.1-19.3-4.7-25.4,3.3ZM2463.4,51.7c-10.8,0-19.6-8.8-19.6-19.6s8.8-19.6,19.6-19.6,19.6,8.8,19.6,19.6-8.8,19.6-19.6,19.6ZM2080.4-37.5c-4.8,5.3-4.4,13.6,1,18.4,5.3,4.8,13.5,4.4,18.3-1,4.8-5.3,4.3-13.5-1-18.3-5.3-4.8-13.5-4.4-18.3,1ZM1726.6,106.2c10.8-.8,18.9-10.2,18-21-.8-10.8-10.2-18.9-21-18-10.8.8-18.9,10.2-18,21,.8,10.8,10.2,18.9,21,18ZM1732.2,150c10-.8,17.5-9.4,16.7-19.5-.7-9.8-9.4-17.4-19.4-16.7-10,.8-17.5,9.6-16.7,19.4.7,10,9.5,17.5,19.4,16.7ZM1745.8,189.1c9.2-.7,16.1-8.8,15.4-17.9-.7-9.4-8.7-16.2-17.9-15.5-9.2.7-16.1,8.6-15.4,18,.7,9.1,8.7,16,17.9,15.4ZM1767.3,221.1c8.4-.6,14.7-8,14-16.5-.6-8.4-8-14.6-16.3-13.9-8.4.6-14.7,7.8-14,16.2.6,8.5,8,14.8,16.3,14.2ZM1792.5,246.5c7.6-.6,13.3-7,12.7-14.9-.5-7.2-7.2-13.1-14.8-12.5-7.6.6-13.2,7.4-12.7,14.6.6,7.9,7.2,13.4,14.8,12.8ZM1802.2-45.9c6.7,7.4,6.1,18.9-1.4,25.6-7.4,6.7-18.9,6.1-25.6-1.4-6.7-7.4-6.1-18.9,1.4-25.6,7.5-6.7,18.9-6.1,25.6,1.4ZM1840.3-61.2c6.2,6.8,5.6,17.4-1.3,23.6-6.8,6.2-17.4,5.6-23.6-1.2-6.1-6.8-5.6-17.4,1.3-23.6,6.9-6.2,17.4-5.6,23.5,1.2ZM1766.6-17.8c6.7,7.4,6.1,18.9-1.4,25.6-7.4,6.7-18.9,6.1-25.6-1.4-6.7-7.4-6.1-18.9,1.3-25.6,7.5-6.7,18.9-6.1,25.6,1.3ZM1732.3,57.4c10.8-.8,18.9-10.2,18-21-.8-10.8-10.2-18.9-21-18-10.8.8-18.9,10.2-18,21,.8,10.8,10.2,18.9,21,18ZM1881.7-57.6c6.1,6.8,5.6,17.4-1.3,23.6-6.8,6.2-17.4,5.6-23.6-1.2-6.1-6.8-5.6-17.4,1.3-23.6,6.9-6.2,17.4-5.6,23.6,1.2ZM1919.4-49.1c5.6,6.2,5.1,15.8-1.1,21.4-6.2,5.6-15.8,5.1-21.4-1.1-5.6-6.2-5.1-15.8,1.1-21.4,6.2-5.6,15.8-5.1,21.4,1.1ZM1559.7,100c10.8,0,19.6-8.8,19.6-19.6s-8.8-19.6-19.6-19.6-19.6,8.8-19.6,19.6,8.8,19.6,19.6,19.6ZM1562,144.1c10,0,18.1-8.1,18.1-18.1s-8.1-18.1-18.1-18.1-18.1,8.2-18.1,18.1,8.1,18.1,18.1,18.1ZM1572.6,184.1c9.2,0,16.7-7.5,16.7-16.7s-7.5-16.8-16.7-16.8-16.7,7.4-16.7,16.8,7.5,16.7,16.7,16.7ZM1591.6,217.6c8.4,0,15.2-6.9,15.2-15.4s-6.8-15.1-15.2-15.1-15.2,6.7-15.2,15.1,6.8,15.4,15.2,15.4ZM1614.8,244.9c7.6,0,13.8-6,13.8-13.9s-6.2-13.6-13.8-13.6-13.8,6.4-13.8,13.6,6.2,13.9,13.8,13.9ZM1644.6-48.2c6.1,7.9,4.6,19.3-3.3,25.4-7.9,6.1-19.3,4.6-25.4-3.3-6.1-7.9-4.6-19.3,3.3-25.4,7.9-6.1,19.3-4.7,25.4,3.3ZM1682-64.9c5.6,7.3,4.3,17.8-3,23.4-7.3,5.6-17.8,4.3-23.4-3-5.6-7.3-4.3-17.8,3-23.4,7.3-5.6,17.8-4.3,23.4,3ZM1719.6-73.2c5.1,6.7,3.9,16.2-2.7,21.4-6.7,5.1-16.2,3.9-21.4-2.8-5.1-6.7-3.9-16.2,2.8-21.4,6.7-5.1,16.2-3.9,21.4,2.8ZM1756.1-72.8c4.6,6,3.5,14.7-2.5,19.3-6,4.6-14.7,3.5-19.4-2.5-4.7-6-3.5-14.7,2.5-19.3,6-4.7,14.7-3.5,19.3,2.5ZM1608.9-20.6c6.1,7.9,4.6,19.3-3.3,25.4-7.9,6.1-19.3,4.6-25.4-3.3-6.1-7.9-4.6-19.3,3.3-25.4,7.9-6.1,19.3-4.7,25.4,3.3ZM1569.1,51.7c10.8,0,19.6-8.8,19.6-19.6s-8.8-19.6-19.6-19.6-19.6,8.8-19.6,19.6,8.8,19.6,19.6,19.6ZM1952.1-37.5c4.8,5.3,4.3,13.6-1,18.4-5.3,4.8-13.6,4.4-18.4-1-4.8-5.3-4.3-13.5,1-18.3,5.3-4.8,13.5-4.4,18.4,1ZM2016.3-214.3h0s0,0,0,0h.3s0,0,0,0h.3s0,0,0,0h.2s.2,0,.2,0h0s0,0,0,0h.1s.3,0,.3,0h0s0,0,0,0h0s0,0,0,0h0s0,0,0,0h0s0,0,0,0h.2s0,0,0,0h0s.1,0,.1,0h.2s0,0,0,0h0s.3,0,.3,0h0s0,0,0,0h0s.2,0,.2,0h0s0,0,0,0h0s0,0,0,0h0c.7.1,1.4.3,2.1.4.5-2.1,1.1-4.1,1.7-6.2,2.3-7.2,7.4-18,7.9-25.2v-.7c0-1.8-.5-3.5-1.4-5-.4-.7-.8-1.3-1.3-1.9-3-3.4-7.6-5.1-12.1-5.2h0s-.8,0-.8,0c-3.7.1-7.5,1.4-10.3,3.8-2.4,2.1-4.1,5-4.1,8.3h0c0,6,3,12.8,5.2,18.4,1.7,4.5,3.4,9,4.5,13.7.7-.2,1.5-.3,2.2-.4h0s0,0,0,0h0s0,0,0,0h0s0,0,0,0h0s0,0,0,0h0s0,0,0,0h0s.1,0,.1,0h0s0,0,0,0h.1s0,0,0,0h0s0,0,0,0h0s0,0,0,0h0s0,0,0,0h.1s0,0,0,0h0s0,0,0,0h.3s0,0,0,0h0s0,0,0,0h0s0,0,0,0h.1s0,0,0,0h0s.2,0,.2,0h.2s0,0,0,0h.1s0,0,0,0h.2s.1,0,.1,0h.3ZM2038.1-195.5h0s0,0,0,0h0s0,0,0,0h0c0,0,0,0,0,0h0s0,0,0,0h0s0,0,0,0h0s0,0,0,0h0s0,0,0,0v.2s0,0,0,0h0s0,.1,0,.1h0c0,0,0,.2,0,.2h0s0,0,0,0h0c0,0,0,0,0,0h0s0,.1,0,.1h0c0,.1,0,.2,0,.2h0s0,.3,0,.3h0s0,0,0,0h0s0,0,0,0h0s0,.2,0,.2h0c0,.1,0,.2,0,.2v.2s0,.2,0,.2h0s0,.2,0,.2h0c0,.1,0,.2,0,.2h0c0,0,0,.2,0,.2h0v.2h0c0,0,0,.1,0,.1h0v.2h0c0,0,0,.2,0,.2h0c0,0,0,.2,0,.2h0c0,.1,0,.2,0,.2h0s0,.2,0,.2v.2s0,0,0,0h0s0,.1,0,.1v.3s0,0,0,0h0c0,0,0,0,0,0h0c0,0,0,0,0,0h0s0,0,0,0h0s0,0,0,0h0c0,0,0,.1,0,.1h0v.2h0c0,0,0,.1,0,.1h0s0,0,0,0h0c0,0,0,.1,0,.1h0c0,.1,0,.2,0,.2h0s0,0,0,0h0c0,0,0,0,0,0h0s0,.2,0,.2h0s0,0,0,0h0s0,0,0,0h0c0,0,0,.1,0,.1h0s0,0,0,0h0c0,0,0,.1,0,.1h0c-.1.8-.3,1.5-.4,2.2,2.1.5,4.1,1.1,6.2,1.7,7.1,2.3,18.1,7.4,25.2,7.9h.7c1.8,0,3.5-.5,5-1.4.7-.4,1.3-.8,1.9-1.3,3.4-3,5.1-7.6,5.2-12.1h0s0-.9,0-.9c-.1-3.7-1.4-7.5-3.8-10.3-2.1-2.5-5-4.1-8.3-4.1h0c-6,0-12.8,3-18.4,5.2-4.5,1.7-9,3.4-13.7,4.5.2.7.3,1.4.4,2.2ZM2018.8-170.3h0s0,0,0,0h-.2s0,0,0,0h-.4s0,0,0,0h0s0,0,0,0h0s0,0,0,0h-.2s0,0,0,0h-.2s0,0,0,0h0s0,0,0,0h-.2s0,0,0,0h-.1s0,0,0,0h0s0,0,0,0h0s0,0,0,0h-1.2s0,0,0,0h0s0,0,0,0h0s0,0,0,0h-.2s0,0,0,0h0s0,0,0,0h-.5s0,0,0,0h-.1s0,0,0,0h0s0,0,0,0h-.4s-.2,0-.2,0h0s-.3,0-.3,0h-.1s0,0,0,0h0s-.2,0-.2,0h0c-.8-.1-1.5-.3-2.2-.5-1.2,5.2-3.1,10.2-5.1,15.2-2,5.2-4.5,11.2-4.5,16.8h0c0,3.3,1.7,6.2,4.1,8.3,2.9,2.4,6.6,3.7,10.4,3.8h.6c4.5,0,9.3-1.7,12.3-5.2.5-.6.9-1.2,1.3-1.8.8-1.3,1.2-2.8,1.4-4.3v-.7c0-6.7-5.7-19.1-7.9-25.9-.7-2-1.2-4.1-1.7-6.2-.9.2-1.9.4-2.9.5ZM1994.4-188.8h0s0-.1,0-.1h0s0,0,0,0h0s0,0,0,0h0c0-.1,0-.2,0-.2h0s0,0,0,0h0s0,0,0,0h0c0,0,0,0,0,0h0s0-.2,0-.2h0s0,0,0,0h0s0,0,0,0h0s0,0,0,0h0c0-.1,0-.3,0-.3h0s0,0,0,0h0c0,0,0-.1,0-.1h0s0,0,0,0h0c0-.1,0-.2,0-.2h0s0-.1,0-.1h0v-.2h0s0-.1,0-.1h0s0,0,0,0h0s0,0,0,0h0s0-.1,0-.1h0c0,0,0,0,0,0h0c0,0,0-.2,0-.2h0c0,0,0-.2,0-.2h0s0,0,0,0h0v-.2h0v-.2h0v-.2h0v-.2h0v-.2h0v-.2h0c0-.1,0-.2,0-.2h0c0,0,0,0,0,0h0c0-.1,0-.1,0-.1h0v-.2h0s0,0,0,0h0c0,0,0-.2,0-.2h0s0,0,0,0h0s0-.1,0-.1h0c0,0,0,0,0,0h0s0,0,0,0h0s0,0,0,0h0s0,0,0,0h0s0,0,0,0h0c0,0,0-.1,0-.1h0c0,0,0,0,0,0h0s0,0,0,0h0s0,0,0,0h0s0-.2,0-.2h0c0,0,0-.1,0-.1h0c0,0,0-.1,0-.1h0c0,0,0-.1,0-.1h0s0,0,0,0h0c0,0,0-.1,0-.1h0c0,0,0-.1,0-.1h0s0,0,0,0h0s0,0,0,0h0s0,0,0,0h0c0,0,0-.1,0-.1h0s0,0,0,0h0c0,0,0,0,0,0h0c0,0,0,0,0,0,.1-.7.2-1.4.4-2.1-5.2-1.2-10.2-3.1-15.2-5.1-5.2-2-11.2-4.5-16.8-4.5h0c-3.3,0-6.2,1.7-8.3,4.1-2.4,2.9-3.7,6.6-3.8,10.4v.6c0,4.5,1.7,9.3,5.2,12.3.6.5,1.2,1,1.8,1.3,1.3.8,2.8,1.2,4.3,1.4h.7c6.5,0,19.2-5.7,25.9-7.9,2-.7,4.1-1.2,6.2-1.7-.2-.7-.3-1.4-.4-2h0ZM2032.5-208.5c5-.9,9.8-2.6,14.7-4.5,7.2-2.8,14.3-5.8,22.1-5.9h0s.4,0,.4,0c6.7,0,12.8,3.1,17.1,8.2,4.2,5,6.5,11.4,6.6,17.9h0v.5c0,7.9-3.2,15.9-9.2,21.1-1.1,1-2.3,1.9-3.6,2.6-3.1,1.8-6.6,2.8-10.2,2.9h0s-.6,0-.6,0c-12.1,0-18.7-5-29.5-8.5-2.6-.8-5.1-1.5-7.8-2,.4,2.6,1.1,5.2,2,7.7,3.4,10.5,8.3,17.2,8.4,28.8h0s0,.6,0,.6h0c1.2-.5,2.4-1.2,3.6-1.9,26.5-15.2,46.6,14.6,33.4,37.7-1.6-8.6-5.9-11.9-10.9-11.8-13.3.2-20.2,17-30.8,22.8-1.4.7-2.8,1.4-4.2,2,15.2,6.6,29.1,21.7,38.5,45.4h0c7.4-8.2,19.1-10,28.4-5.1,1.1-2.3,2.5-4.5,4.3-6.5,8.9-9.9,23.7-11.2,34.2-3.5,1-1.8,2.2-3.4,3.6-5,10-11.1,27.2-12,38.4-2,.3.3.7.6,1,.9.6-.8,1.3-1.7,2-2.5,10-11.1,27.2-12,38.4-2,1.9,1.7,3.5,3.7,4.8,5.8,1.1-12.2,11.3-21.8,23.8-21.8s12.5,2.7,16.9,7c8.1-10.6,23.4-12.5,34-4.4,1.2.9,2.3,1.9,3.2,3,8.8-10.4,24.4-12.1,35.3-3.7,2.8,2.2,5.1,4.9,6.8,7.8,9.5-7.1,23-7.4,32.9.2,4.6,3.5,7.7,8.3,9.3,13.4,9.5-4.7,21.2-3.9,30.1,3,7.3,5.6,11.1,14,11.1,22.5,8.2-2.1,17.3-.5,24.6,5.1,10.7,8.2,13.9,22.5,8.7,34.3,16.3.4,29.4,13.7,29.4,30.1s-3.2,15.4-8.4,20.8c10.5,4.7,17.8,15.2,17.8,27.5s-5.1,19.2-12.8,24.6c5.6,5.2,9.1,12.6,9.1,20.9,0,11.6-6.9,21.6-16.8,26.1,3,4.4,4.7,9.7,4.7,15.4,0,13.1-9.4,24.1-21.8,26.6.9,2.6,1.3,5.3,1.3,8.2,0,13.9-11,25.4-24.8,25.9.1.9.2,1.9.2,2.9,0,13.6-10.7,24.4-24.3,24.4s-23.2-8.3-38.2-8.3-16.5,4.7-22,11.2h-682.4c-5.5-6.5-12.9-11.2-22-11.2-15,0-23.8,8.3-38.2,8.3s-24.3-10.9-24.3-24.4,0-1.9.2-2.9c-13.9-.5-24.8-11.9-24.8-25.9s.5-5.6,1.3-8.2c-12.4-2.5-21.8-13.5-21.8-26.6s1.7-11,4.7-15.4c-9.9-4.5-16.8-14.5-16.8-26.1s3.5-15.6,9.1-20.9c-7.7-5.4-12.8-14.4-12.8-24.6s7.3-22.8,17.8-27.5c-5.2-5.4-8.4-12.7-8.4-20.8,0-16.4,13.1-29.7,29.4-30.1-5.2-11.8-2-26,8.7-34.3,7.3-5.6,16.3-7.2,24.6-5.1,0-8.5,3.9-16.9,11.1-22.5,8.9-6.9,20.7-7.7,30.1-3,1.6-5.2,4.8-9.9,9.3-13.4,9.8-7.6,23.3-7.4,32.8-.2,1.6-3,3.9-5.6,6.8-7.8,10.9-8.4,26.4-6.7,35.3,3.7,1-1.1,2-2.1,3.2-3,10.6-8.2,25.8-6.2,34,4.4,4.3-4.3,10.3-7,16.9-7,12.5,0,22.7,9.6,23.7,21.8,1.3-2.1,2.9-4,4.9-5.8,11.2-10,28.3-9.1,38.3,2,.7.8,1.4,1.6,2,2.5.3-.3.7-.6,1-.9,11.1-10,28.3-9.1,38.4,2,1.4,1.6,2.6,3.2,3.6,5,10.5-7.7,25.3-6.3,34.2,3.5,1.8,2,3.2,4.2,4.3,6.5,9.3-4.9,21.1-3.1,28.4,5.1h0c9.4-23.7,23.3-38.8,38.5-45.4-1.5-.6-2.9-1.3-4.3-2.1-10.6-5.8-17.4-22.7-30.8-22.7-5,0-9.2,3.3-10.8,11.8-13.1-23.1,7.2-52.9,33.5-37.7,1.2.7,2.4,1.4,3.6,2h0c0-7.5,2.7-14.4,5.4-21.2,2.1-5.3,4.1-10.6,5.1-16.2-2.6.4-5.2,1.1-7.8,2-10.6,3.4-17.1,8.3-28.8,8.4h0s-.6,0-.6,0c-3.8,0-7.5-1.1-10.8-3-1.3-.7-2.5-1.6-3.7-2.6-6.1-5.2-9.2-13.2-9.2-21.1v-.5h0c.1-6.5,2.3-13,6.6-17.9,4.2-5,10.1-8.1,16.7-8.2h0s.4,0,.4,0c7.4,0,14.3,2.7,21,5.4,5.3,2.1,10.6,4.1,16.2,5.1-.8-5-2.6-9.8-4.5-14.7-2.8-7.2-5.8-14.3-5.9-22.1h0s0-.4,0-.4c0-6.7,3.1-12.8,8.2-17.1,5-4.2,11.4-6.5,17.9-6.6h0s.5,0,.5,0c7.9,0,15.9,3.2,21.1,9.2,1,1.1,1.9,2.3,2.6,3.6,1.8,3.1,2.8,6.6,2.9,10.2h0v.6c0,12-5,18.7-8.5,29.5-.8,2.6-1.5,5.1-2,7.7ZM2082.9,78.4c30.5-23.6,68.7-37.7,110.3-37.7s45.9,4.5,66.4,12.7c-4.8-18.5-15.3-33.5-31.2-43.4-29.7-18.4-78.6-22.3-143.8,5.8.3,4.8.4,9.8.4,15,0,15.3-.7,31.4-2.1,47.7ZM1659.4,225.3c0-1.5,0-3,0-4.5,0-44,15.8-84.4,42.1-115.7-3.5-4.5-5.8-10-6.2-16.1-.9-12,5.5-23,15.4-28.5v-.5c-5.4-5-9-11.9-9.6-19.8-1.2-15.9,10.3-29.9,25.8-32,.2-.3.5-.7.7-1-4.6-9.3-3.8-20.5,2.1-29-42.8,4.9-80.8,19-103.4,48.9-49.1,64.9-17.4,143.1,33.2,198.4ZM2331.1,105.1c26.3,31.3,42.1,71.6,42.1,115.7s0,3,0,4.5c50.6-55.2,82.3-133.5,33.2-198.4-22.6-29.9-60.6-43.9-103.4-48.9,5.9,8.5,6.7,19.7,2.2,29,.2.3.5.7.7,1,15.5,2.2,27.1,16.2,25.8,32-.6,7.9-4.2,14.8-9.6,19.8v.5c9.9,5.6,16.3,16.5,15.4,28.5-.5,6.1-2.7,11.6-6.2,16.1Z"/>
    <path class="cls-7" d="M2353.5,379.6c9.9,0,17.9,8,17.9,17.8s-8,17.8-17.9,17.8-17.8-8-17.8-17.8,8-17.8,17.8-17.8h0ZM1671.5,379.6c9.9,0,17.8,8,17.8,17.8s-8,17.8-17.8,17.8-17.8-8-17.8-17.8,8-17.8,17.8-17.8ZM2217.1,379.6c9.9,0,17.8,8,17.8,17.8s-8,17.8-17.8,17.8-17.8-8-17.8-17.8,8-17.8,17.8-17.8ZM2080.7,379.6c9.9,0,17.8,8,17.8,17.8s-8,17.8-17.8,17.8-17.8-8-17.8-17.8,8-17.8,17.8-17.8ZM1944.4,379.6c9.9,0,17.8,8,17.8,17.8s-8,17.8-17.8,17.8-17.8-8-17.8-17.8,8-17.8,17.8-17.8ZM1808,379.6c9.9,0,17.8,8,17.8,17.8s-8,17.8-17.8,17.8-17.8-8-17.8-17.8,8-17.8,17.8-17.8ZM1730.4,368.7h18.8c10.7,0,19.4,8.7,19.4,19.4v18.8c0,10.7-8.7,19.4-19.4,19.4h-18.8c-10.7,0-19.4-8.7-19.4-19.4v-18.8c0-10.7,8.7-19.4,19.4-19.4ZM1866.8,368.7h18.8c10.7,0,19.4,8.7,19.4,19.4v18.8c0,10.7-8.8,19.4-19.4,19.4h-18.8c-10.7,0-19.4-8.7-19.4-19.4v-18.8c0-10.7,8.7-19.4,19.4-19.4ZM2275.9,368.7h18.8c10.7,0,19.4,8.7,19.4,19.4v18.8c0,10.7-8.7,19.4-19.4,19.4h-18.8c-10.7,0-19.4-8.7-19.4-19.4v-18.8c0-10.7,8.7-19.4,19.4-19.4ZM2139.5,368.7h18.8c10.7,0,19.4,8.7,19.4,19.4v18.8c0,10.7-8.7,19.4-19.4,19.4h-18.8c-10.7,0-19.4-8.7-19.4-19.4v-18.8c0-10.7,8.7-19.4,19.4-19.4ZM2003.2,368.7h18.8c10.7,0,19.4,8.7,19.4,19.4v18.8c0,10.7-8.7,19.4-19.4,19.4h-18.8c-10.7,0-19.4-8.7-19.4-19.4v-18.8c0-10.7,8.7-19.4,19.4-19.4ZM1667,367.4c-.5-2.2-.8-4.3-.8-6.2h0c0-6.1,5-11.1,11.1-11.1h678c6.1,0,11.1,5,11.1,11.1h0c0,2.3-.5,5.1-1.4,8.1,11.1,4.5,19,15.4,19,28.2s-8.9,25-21.1,29c3.9,8.7,8.5,16.7,8.5,20.6h0c0,6.2-5.1,5-11.3,5h-687.7c-6.2,0-11.3,1.2-11.3-5h0c0-5.1,4.4-11.5,8.3-19.2-15.8-1.1-28.3-14.3-28.3-30.4s11.2-27.9,25.9-30.1Z"/>
    <path class="cls-6" d="M2309.9,290.9c16.9,0,30.6,5.9,30.6,13.1s-13.7,13.1-30.6,13.1-30.6-5.9-30.6-13.1,13.7-13.1,30.6-13.1h0ZM2115.7,290.9c-16.9,0-30.6,5.9-30.6,13.1s13.7,13.1,30.6,13.1,30.6-5.9,30.6-13.1-13.7-13.1-30.6-13.1h0ZM1916.8,290.9c-16.9,0-30.6,5.9-30.6,13.1s13.7,13.1,30.6,13.1,30.6-5.9,30.6-13.1-13.7-13.1-30.6-13.1h0ZM1722.6,290.9c-16.9,0-30.6,5.9-30.6,13.1s13.7,13.1,30.6,13.1,30.6-5.9,30.6-13.1-13.7-13.1-30.6-13.1h0ZM2174.7,298.9c-2.4,2.4-2.4,6.3,0,8.6l36.3,36.3c2.4,2.4,6.3,2.4,8.6,0l36.3-36.3c2.4-2.4,2.4-6.3,0-8.6l-36.3-36.3c-2.4-2.4-6.3-2.4-8.6,0l-36.3,36.3ZM2016.3,267.5c-19.7,0-35.7,16-35.7,35.7s16,35.7,35.7,35.7,35.7-16,35.7-35.7-16-35.7-35.7-35.7h0ZM1653,266.1c-5.4,0-9.7,5.7-12,9.7-4.5,8.1-6.3,18.4-6.3,27.5s1.8,19.4,6.3,27.5c2.2,4,6.5,9.7,12,9.7s9.7-5.7,12-9.7c4.5-8.1,6.3-18.4,6.3-27.5s-1.8-19.4-6.3-27.5c-2.2-4-6.5-9.7-12-9.7h0ZM1776.7,298.9c-2.4,2.4-2.4,6.3,0,8.6l36.3,36.3c2.4,2.4,6.3,2.4,8.6,0l36.3-36.3c2.4-2.4,2.4-6.3,0-8.6l-36.3-36.3c-2.4-2.4-6.3-2.4-8.6,0l-36.3,36.3ZM2379.5,266.1c-5.4,0-9.7,5.7-11.9,9.7-4.5,8.1-6.3,18.4-6.3,27.5s1.8,19.4,6.3,27.5c2.2,4,6.5,9.7,11.9,9.7s9.7-5.7,12-9.7c4.5-8.1,6.3-18.4,6.3-27.5s-1.8-19.4-6.3-27.5c-2.2-4-6.5-9.7-12-9.7h0Z"/>
  </g>
  <path class="cls-8" d="M170.8,580.5h658.5v51H170.8v-51ZM830.7,559H169.3C130.6,439.3,33.5,249.4,10.4,216c12.5-12.8,56.7,10.3,141.7,61.9-22.8,26-32.9,64.6-23.1,98.3,13.1,44.9,56.6,64.2,97.2,43.2,40.6-21.1,62.8-74.5,49.7-119.4-10.1-34.6-38.3-54-69.3-51.5C251.2,1.9,226.6,9.8,353.9,196.7c-23.4,17.5-38.1,48-36,80.9,3,48,40.7,83,84.1,78.1,43.4-4.9,76.1-47.8,73-95.8-2.3-36.8-25-65.9-55-75.3,7.1-17.9,59.5-177.9,79.9-177.9,20.4,0,72.8,160,79.9,177.9-29.9,9.4-52.6,38.5-54.9,75.3-3.1,48,29.7,90.9,73.1,95.8,43.3,4.9,80.9-30.1,83.9-78.1,2.1-32.9-12.5-63.4-35.9-80.9C773.4,9.8,748.8,1.9,793.4,248.6c-30.9-2.6-59.2,16.8-69.3,51.5-13.1,44.9,9.2,98.4,49.7,119.4,40.6,21.1,84.1,1.7,97.2-43.2,9.9-33.7-.2-72.3-23.1-98.3,85-51.6,129.2-74.7,141.7-61.9-23.2,33.3-120.2,223.2-158.9,343Z"/>
</svg>