<?xml version="1.0" encoding="UTF-8"?>
<svg id="Ebene_1" data-name="Ebene 1" xmlns="http://www.w3.org/2000/svg" viewBox="0 0 20.97 20.97">
  <defs>
    <style>
      .cls-1 {
        fill: none;
        stroke: #fff;
        stroke-linecap: round;
        stroke-miterlimit: 10;
        stroke-width: 1.4px;
      }

      .cls-2 {
        fill: #fff;
        stroke-width: 0px;
      }
    </style>
  </defs>
  <path class="cls-2" d="M10.48,1c5.23,0,9.48,4.25,9.48,9.48s-4.25,9.48-9.48,9.48S1,15.71,1,10.48,5.25,1,10.48,1M10.48,0C4.69,0,0,4.69,0,10.48s4.69,10.48,10.48,10.48,10.48-4.69,10.48-10.48S16.27,0,10.48,0h0Z"/>
  <path class="cls-1" d="M5.92,13.71c-.58-.87-.91-1.91-.91-3.03,0-3.02,2.45-5.47,5.47-5.47s5.47,2.45,5.47,5.47-2.31,5.32-5.2,5.47"/>
  <path class="cls-2" d="M8.39,15.95c0,.22.12.42.3.52l2.35,1.36c.19.11.42.11.61,0,.19-.11.3-.31.3-.52v-2.71c0-.22-.12-.42-.3-.52-.19-.11-.42-.11-.61,0l-2.35,1.36c-.19.11-.3.31-.3.52h0Z"/>
</svg>