<?xml version="1.0" encoding="UTF-8"?>
<svg id="Ebene_1" data-name="Ebene 1" xmlns="http://www.w3.org/2000/svg" viewBox="0 0 20.97 20.97">
  <defs>
    <style>
      .cls-1 {
        font-family: GothamCondensed-Medium, 'Gotham Condensed';
        font-size: 19px;
        font-weight: 500;
      }

      .cls-1, .cls-2 {
        fill: #fff;
      }

      .cls-2 {
        stroke-width: 0px;
      }
    </style>
  </defs>
  <text class="cls-1"><tspan x="8.21" y="39.3">1</tspan><tspan x="7.34" y="62.1">2</tspan><tspan x="7.41" y="84.9">3</tspan></text>
  <path class="cls-2" d="M10.48,1c5.23,0,9.48,4.25,9.48,9.48s-4.25,9.48-9.48,9.48S1,15.71,1,10.48,5.25,1,10.48,1M10.48,0C4.69,0,0,4.69,0,10.48s4.69,10.48,10.48,10.48,10.48-4.69,10.48-10.48S16.27,0,10.48,0h0Z"/>
  <g id="gD5bOd">
    <g>
      <path class="cls-2" d="M6.52,4.82c0,.8,0,1.61,0,2.42,0,.66.11.77.76.77,1.48,0,2.96,0,4.44,0,.72,0,.79-.08.79-.78,0-.79,0-1.59,0-2.4.59-.16,1.07-.14,1.51.35.62.69,1.32,1.31,1.95,1.99.18.2.33.52.34.78.03,2.22.02,4.44.01,6.66,0,.87-.47,1.53-1.16,1.69-.55.12-.68.03-.68-.54,0-1.71,0-3.41,0-5.12,0-.76-.05-.81-.8-.82-2.09,0-4.17,0-6.26,0-.79,0-.88.09-.88.88,0,1.71-.01,3.41,0,5.12,0,.46-.12.62-.6.5-.73-.18-1.2-.74-1.2-1.57,0-2.24,0-4.48,0-6.71,0-.64-.02-1.29.02-1.93.06-.87.83-1.44,1.78-1.29Z"/>
      <path class="cls-2" d="M10.49,16.4c-.89,0-1.78-.01-2.67,0-.35,0-.52-.08-.52-.47.01-1.61.01-3.22,0-4.83,0-.37.15-.49.51-.49,1.8.01,3.6.01,5.4,0,.37,0,.49.15.49.51-.01,1.59-.01,3.18,0,4.78,0,.41-.17.52-.54.51-.89-.02-1.78,0-2.67,0ZM10.47,12.58s0,0,0,0c.51,0,1.02.03,1.53-.02.17-.02.33-.23.49-.35-.15-.13-.3-.37-.46-.38-1.02-.04-2.04-.04-3.06,0-.16,0-.31.24-.46.37.16.13.32.34.49.36.49.05.98.02,1.47.02ZM10.49,14.53c.49,0,.99.04,1.47-.02.19-.02.35-.24.53-.37-.18-.13-.35-.36-.53-.36-.98-.03-1.96-.02-2.95.01-.17,0-.34.21-.5.33.17.14.33.37.51.4.48.06.98.02,1.47.02Z"/>
      <path class="cls-2" d="M11.75,4.74c0,.76.02,1.47-.02,2.19,0,.1-.24.28-.37.28-1.19.02-2.39,0-3.58.02-.31,0-.45-.11-.45-.43,0-.55-.02-1.1.02-1.65.01-.14.22-.38.34-.38,1.32-.03,2.65-.02,4.07-.02Z"/>
    </g>
  </g>
</svg>