<?xml version="1.0" encoding="UTF-8"?>
<svg id="Ebene_1" data-name="Ebene 1" xmlns="http://www.w3.org/2000/svg" version="1.1" viewBox="0 0 620.9 81">
  <defs>
    <style>
      .cls-1 {
        fill: none;
      }

      .cls-1, .cls-2 {
        stroke-width: 0px;
      }

      .cls-3, .cls-4 {
        font-family: GothamCondensed-Ultra, 'Gotham Condensed';
        font-size: 105px;
      }

      .cls-3, .cls-2 {
        fill: #fff;
      }

      .cls-4 {
        display: none;
        fill: #a9936f;
        stroke: #fff;
        stroke-miterlimit: 10;
        stroke-width: 3px;
      }
    </style>
  </defs>
  <g>
    <g id="Background_RGB" data-name="Background RGB">
      <circle class="cls-1" cx="40.5" cy="40.5" r="40.5"/>
    </g>
    <path class="cls-2" d="M65.5,63.6l2.6,2.4c-4,4.3-8.9,7.7-14.6,9.7l-1.2-3.3c5.1-1.9,9.6-4.9,13.2-8.8h0Z"/>
    <path class="cls-2" d="M49.7,73.2l.9,3.4c-3.2.9-6.7,1.4-10.2,1.4s-6.9-.5-10.2-1.4l.9-3.4c2.9.8,6,1.3,9.2,1.3s6.3-.4,9.2-1.3Z"/>
    <path class="cls-2" d="M28.7,72.4l-1.2,3.3c-5.6-2.1-10.6-5.4-14.6-9.7l2.6-2.4c3.6,3.9,8.1,7,13.2,8.8Z"/>
    <path class="cls-2" d="M67.2,61.5c1.9-2.5,3.6-5.2,4.8-8.2s2.5-8.3,2.5-12.9c0-7.6-2.5-14.7-6.7-20.3s-9.1-9.2-15.2-11.5-7.8-2.2-12-2.2-8.1.7-11.7,2.1-6,2.7-8.6,4.6-5.3,4.6-7.3,7.5-3.3,5.3-4.4,8.3-1.1,3.4-1.4,5.1-.6,4.2-.6,6.4.2,4.1.5,6,1,4.3,1.8,6.3c1.2,3.2,2.9,6.1,5,8.7l-2.7,2.2c-2.7-3.4-4.8-7.3-6.2-11.6s-1.8-7.6-1.8-11.6,1.1-10.2,3-14.7,2.8-5.5,4.6-8,4.4-5.1,7.1-7.1,6.6-4.3,10.3-5.6,8.1-2.1,12.5-2.1,8,.6,11.7,1.9,7.1,3,10.2,5.2,7,6.1,9.6,10,4.1,7.6,5.1,11.8,1,5.7,1,8.7c0,4.4-.7,8.6-2.1,12.5s-3.4,7.5-5.9,10.7l-2.7-2.2Z"/>
    <path class="cls-2" d="M11.4,40.5c0-16,13-29.1,29.1-29.1s29.1,13,29.1,29.1-13,29.1-29.1,29.1-29.1-13-29.1-29.1ZM10,40.5c0,16.8,13.7,30.5,30.5,30.5s30.5-13.7,30.5-30.5-13.7-30.5-30.5-30.5-30.5,13.7-30.5,30.5Z"/>
    <path class="cls-2" d="M61.5,40.5c0,11.6-9.4,21-21,21s-21-9.4-21-21,9.4-21,21-21,21,9.4,21,21h0ZM40.5,20.7c-10.9,0-19.8,8.9-19.8,19.8s8.9,19.8,19.8,19.8,19.8-8.9,19.8-19.8-8.9-19.8-19.8-19.8Z"/>
    <path class="cls-2" d="M23.6,25.3c1.1-1.1,1.1-2.4,0-3.4-1-1-2.3-.9-3.3.3l-1,1.1,3.3,3.1,1-1.1h0ZM21,22.7c.6-.7,1.3-.7,2-.1.7.6.7,1.3,0,2l-.4.4-2.1-1.9.4-.4h0Z"/>
    <polygon class="cls-2" points="28.8 21 28.3 20.3 26.6 21.4 26 20.6 27.4 19.6 26.9 18.9 25.6 19.9 25 19.1 26.6 18 26.1 17.3 23.7 19 26.3 22.7 28.8 21"/>
    <path class="cls-2" d="M31.6,19.7c1.1-.5,1.5-1.4,1-2.6l-1-2.5-.9.4,1.1,2.5c.3.7.1,1.1-.4,1.4-.5.2-1,0-1.3-.6l-1.1-2.5-.9.4,1,2.5c.5,1.2,1.4,1.6,2.5,1.1h0Z"/>
    <polygon class="cls-2" points="35.6 18.3 36.6 18.1 35.8 14.5 37.1 14.2 37 13.4 33.4 14.1 33.6 14.9 34.9 14.7 35.6 18.3"/>
    <path class="cls-2" d="M41.7,16.5c0-.8-.4-1.1-1.2-1.4-.6-.2-.8-.4-.8-.7,0-.3.2-.4.5-.4.4,0,.7.3.8.4l.6-.6c-.3-.3-.7-.7-1.4-.7-.9,0-1.5.6-1.5,1.3,0,.8.5,1.2,1.2,1.4.5.2.7.4.7.7,0,.3-.2.5-.6.5-.5,0-.8-.3-.9-.5l-.6.7c.2.4.7.8,1.5.7,1,0,1.6-.6,1.6-1.4h0Z"/>
    <path class="cls-2" d="M45.2,17.4c-.8-.1-1.2-.8-1.1-1.7.2-.9.8-1.4,1.6-1.2.4,0,.8.3.9.7l.8-.5c-.3-.6-.7-1-1.6-1.1-1.4-.3-2.5.5-2.8,1.9-.3,1.4.5,2.5,1.9,2.8.9.2,1.5,0,1.9-.5l-.6-.7c-.3.3-.6.4-1.2.3h0Z"/>
    <polygon class="cls-2" points="50.3 20 51.2 20.4 53 16.2 52.1 15.8 51.4 17.5 49.8 16.8 50.5 15.1 49.6 14.7 47.8 18.9 48.7 19.3 49.4 17.6 51 18.3 50.3 20"/>
    <polygon class="cls-2" points="55 22.9 55.5 22.2 53.8 21 54.4 20.2 55.8 21.2 56.3 20.5 54.9 19.5 55.5 18.7 57.1 19.8 57.5 19.1 55.2 17.4 52.5 21.2 55 22.9"/>
    <path class="cls-2" d="M56.6,24.5l1.1-1.1.2.2-.4,1.8.8.9.4-2c.6.3,1.2.2,1.7-.2.7-.7.6-1.5-.2-2.4l-1-1-3.3,3.1.7.7h0ZM59.3,21.9l.3.3c.4.4.4.8.1,1.1-.3.3-.7.3-1.1-.1l-.3-.3,1-1h0Z"/>
    <polygon class="cls-2" points="17.7 50.4 18.8 49.9 19.6 51.6 20.3 51.2 19.2 48.6 15 50.5 15.4 51.4 16.9 50.7 17.6 52.3 18.4 51.9 17.7 50.4"/>
    <path class="cls-2" d="M22.6,54.6l-2.2,1.6c-.6.4-1.1.4-1.4-.1-.3-.5-.2-1,.3-1.4l2.2-1.6-.6-.8-2.2,1.6c-1,.8-1.2,1.7-.5,2.7.7,1,1.7,1.1,2.7.4l2.2-1.6-.6-.8h0Z"/>
    <path class="cls-2" d="M24.7,57.9c.3.3.3.6.3.9h.8c0-.5,0-1-.6-1.5-.7-.6-1.5-.6-2,0-.6.6-.4,1.2,0,1.9.2.5.3.8,0,1-.2.2-.5.2-.8,0-.4-.3-.3-.8-.3-1h-.9c0,.5,0,1.1.6,1.7.8.7,1.6.6,2.1,0,.5-.6.4-1.1.1-1.8-.3-.6-.4-.8-.1-1.1.2-.2.4-.2.7,0h0Z"/>
    <path class="cls-2" d="M28.4,59.7c-.7-.5-1.5-.3-1.9.3-.4.7-.2,1.3.3,1.9.3.4.4.7.2,1-.1.2-.4.3-.8,0-.4-.3-.5-.7-.5-.9l-.8.2c0,.4.2,1,.9,1.5.9.6,1.7.4,2.1-.3.4-.7.2-1.1-.2-1.8-.4-.5-.5-.7-.3-1,.1-.2.4-.2.7,0,.4.2.4.6.4.8l.8-.2c0-.4-.2-.9-.8-1.3h0Z"/>
    <path class="cls-2" d="M32.1,61.7l-1.4-.5-1.7,4.2,1.5.6c1,.4,1.7.2,2-.6.2-.6,0-1.1-.4-1.3h0c.4,0,.8-.2,1.1-.7.3-.7,0-1.3-1.1-1.7h0ZM31.7,64.9c-.1.3-.4.4-.9.2l-.5-.2.4-1,.5.2c.5.2.6.5.5.8h0ZM32.2,63.2c-.1.3-.4.4-.8.3l-.4-.2.4-1,.4.2c.4.2.6.4.4.7Z"/>
    <path class="cls-2" d="M35.9,62.8v.4c0,0-2.3,3.8-2.3,3.8l1,.2.5-.8,1.6.3.2.9,1.1.2-1-4.8-1-.2h0ZM35.5,65.7l.7-1.3h0s.3,1.5.3,1.5l-1-.2h0Z"/>
    <polygon class="cls-2" points="40.8 66.9 40.7 63.3 39.7 63.3 39.8 67.8 42.4 67.8 42.4 66.9 40.8 66.9"/>
    <polygon class="cls-2" points="45.1 66.5 44.4 62.9 43.5 63.1 44.3 67.6 46.9 67.1 46.7 66.2 45.1 66.5"/>
    <rect class="cls-2" x="47.3" y="64.2" width="1.7" height=".8" transform="translate(-17.3 17.6) rotate(-17.6)"/>
    <path class="cls-2" d="M52.6,62.4h0c.3-.3.4-.8.2-1.3-.3-.6-1-.8-2-.3l-1.3.7,2.1,4.1,1.4-.7c1-.5,1.3-1.2.9-1.9-.3-.5-.8-.7-1.3-.5h0ZM51.2,62.7l-.5-.9.4-.2c.4-.2.7-.2.8.2.2.3,0,.6-.4.8l-.4.2h0ZM52.6,64.1l-.5.2-.5-1,.5-.2c.4-.2.8-.2.9.1.2.3,0,.6-.4.8h0Z"/>
    <path class="cls-2" d="M56.4,56.9l-.7.6,1.7,2.1c.4.5.4,1.1,0,1.4-.5.4-1,.3-1.4-.3l-1.7-2.1-.8.6,1.7,2.1c.8,1,1.8,1.1,2.7.3,1-.8,1-1.7.2-2.7l-1.7-2.1h0Z"/>
    <polygon class="cls-2" points="59.1 53.6 61.3 55.3 61.3 55.3 57.9 55.2 57.2 56.1 57.8 56.1 61 58.6 61.6 57.8 59.4 56.2 59.4 56.1 62.8 56.3 63.3 55.6 59.7 52.9 59.1 53.6"/>
    <path class="cls-2" d="M64.2,48.8c-1.3-.6-2.4,0-3.1,1.3l-.6,1.3,4.1,1.9.6-1.3c.6-1.4.2-2.6-1.1-3.2h0ZM64.5,51.6l-.2.5-2.6-1.1.2-.5c.4-.8,1-1.1,1.8-.7.8.4,1.1,1,.7,1.9h0Z"/>
    <path class="cls-2" d="M57.3,42.4s-3.2-10.6-3.7-12.3c-.4-1.5-1.6-1.4-1.6-1.4,0,0-.4,0-3.4,0-2.9,0-3.2.7-1.1,3.4.7.9.4,1-1.3,1.3-1.7.3-2.5-1.4-2.6-2.1,0-.7-.5-3.3-.5-3.4-.1-.3.7-.5,1.1-.3.7.4.6.6.6-.7s-1.8-1.2-1.8-1.2c-.1-1.4-2.2-1.2-2.9-1.1-.7,0-1.4.5-3.2.5s-1.5,2.3-1.5,2.3c0,0,.8-.2,1.5-.2.6,0,2.3,0,1.8,1,0,0-1.3-.5-1.9-.5s-2.1,0-2.5-.6c-.4-.5-.5-.7-.5-.7,0,0-.4,1.7.5,1.9,1,.2,1.9,0,2.4,0,.5,0,1.4,0,1.6,0,.2,0,0,.3-.5.3-.5,0-1.6,0-1.3.4.3.5.8.8,1.1.8.3,0,1.2,0,.8.8l-.2.6c-.2.7-1,2.3-2.7,2-1.7-.3-1.9-.4-1.3-1.3,2.1-2.7,1.8-3.5-1.1-3.4-3,0-3.4,0-3.4,0,0,0-1.1,0-1.6,1.4-.5,1.7-4.5,12.5-4.5,12.5,0,0-.2,1,.7,1.3,1.1.4,1.5-.7,1.5-.7l2.9-7.7c.2.1.4.3.6.4l-3.6,10.1s-.4,1.1.8,1.5c1,.4,1.5-.9,1.5-.9l3.5-9.5c.2,0,.4.2.6.2l-3.7,10.5s-.3,1.1.8,1.5c1.1.4,1.5-.9,1.5-.9l3.7-10.4c.2,0,.4.1.6.2,0,0,0,0,0,0l-1.9,6.2s-.3,1.1.7,1.5c1,.4,1.6-1,1.6-1l1.7-5.5s.7,2.9-.5,4.8c-1.2,2-2.4,3.3-4,4.1,0,0,0,.2.6.3.6,0,.6.2.7.3l-.8,1.3s-.1.5-.7.2c-.6-.2-1.3-.6-1.3-.6,0,0-.7-.2-.9.2l-.2.3s-.8,0-.9.6c-.1.5,0,.5,0,.5,0,0,.4-.3.5-.2.2.1,0,.5.3.6.5.2.8,0,1-.3.2-.1.6,0,.6.1,0,.1-.2.4-.6.5-.5,0-1.5.2-1.4.8,0,.5,0,.5,0,.5,0,0-.4.8.4,1.1,0,0,.1-.5.3-.5s.3.3.6.3.6-.2.7-.7c.2-.5.4-1.2.4-1.2,0,0,.2-.2.3-.2.1,0,.2.3.1.4,0,.1-.1.5-.1.6,0,0-.7.9-.2,1.4.6.4.5.6.6.7.1.1.7.3.9.2,0,0-.2-.5-.3-.5,0,0,0-.2.3-.2s.4-.5.1-.9c-.2-.4-.3-.7-.4-1-.2-.5.3-.7.5-.2.2.5.1.9.5.9.3,0,.4-.3.5-.2.1,0,.6.3.3.8,0,0,1-.2.6-1-.2-.6-.5-.3-.3-.9.1-.4-.3-.8-.7-.8-.4,0-1-.1-.7-.6.3-.6.7-1.3.7-1.3l.7.8s.6-1.6,1.2-2.3c.6-.7,1.3-1.6,1.6-1.4.3.2.4,2.5.2,3.7-.3,1.2-1.2,3.7-1.5,4.1-.2.3,1.3-.2,1.5-.3.2,0,.6-.5.6.2,0,.7.4,2,1,2.7h0c.6-.7.9-2.1,1-2.8,0-.7.5-.2.6-.2.2,0,1.7.6,1.5.3-.2-.3-1.2-2.9-1.5-4.1-.3-1.2-.2-3.5.2-3.7.3-.2,1,.7,1.6,1.4.6.7,1.2,2.3,1.2,2.3l.7-.8s.4.7.7,1.3c.3.5-.3.7-.7.6-.5,0-.9.3-.7.8.2.6,0,.3-.3.9-.3.9.6,1,.6,1-.2-.5.2-.8.3-.8.1,0,.2.2.5.2.4,0,.3-.4.5-.9.2-.5.6-.3.5.2,0,.2-.2.6-.4,1-.2.4-.2.9.1.9s.4.2.3.2c0,0-.3.5-.3.5.2.1.8,0,.9-.2.1-.1,0-.3.6-.7.6-.4-.1-1.3-.2-1.4,0,0-.1-.4-.1-.6,0-.1,0-.4.1-.4.1,0,.3.2.3.2,0,0,.3.7.5,1.2.2.5.4.7.7.7s.4-.3.6-.3.3.5.3.5c.8-.3.4-1.1.4-1.1,0,0,0,0,0-.5,0-.5-1-.7-1.4-.8-.5,0-.7-.4-.6-.5,0-.1.4-.3.6-.1.2.2.6.5,1,.3.3,0,0-.5.3-.6.2,0,.5.2.5.2,0,0,.1,0,0-.5-.1-.5-.9-.6-.9-.6l-.2-.3c-.2-.3-.9-.2-.9-.2,0,0-.7.4-1.3.6-.6.2-.7-.2-.7-.2l-.7-1.4c0-.1.1-.2.7-.3.6,0,.6-.3.6-.3-1.6-.7-2.4-1.8-3.6-3.8-1.2-2-.5-4.8-.5-4.8l1.7,5.5s.6,1.4,1.6,1c1-.4.7-1.5.7-1.5l-1.9-6.4s0,0,0,0c.2,0,.4-.1.6-.2l3.1,10.4s.4,1.3,1.5.9c1.1-.4.7-1.5.7-1.5l-3.2-10.7c.2,0,.4-.2.5-.2,0,0,0,0,0,0l3,9.7s.5,1.3,1.5.9c1.2-.4.8-1.5.8-1.5l-3.2-10.3s0,0,0,0c.2-.1.4-.3.6-.4,0,0,0,.1,0,.1l2.4,7.8s.4,1.1,1.5.7c.9-.3.7-1.3.7-1.3h0ZM25.2,42.6s-.2.6-.6.5c-.4-.2,0-.7,0-.7,0,0,2.8-7.1,3-7.8.2.1.4.3.6.4l-3,7.6h0ZM27.4,46s-.2.6-.5.5c-.4-.2-.1-.7-.1-.7,0,0,3-8.3,3.5-9.6.2.1.4.2.6.3l-3.4,9.5ZM30.1,47.9s-.2.6-.5.5c-.4-.2-.1-.7-.1-.7,0,0,3-8.7,3.6-10.3.2,0,.4.2.7.2l-3.6,10.2h0ZM34.8,44.5s-.1.6-.5.5c-.4-.1-.1-.7-.1-.7,0,0,1.4-4.8,1.8-6.1.2,0,.5,0,.7.1l-1.9,6.2h0ZM40,26.4c-.3,0-.6-.3-.6-.3,0,0,.2-.3.5-.3.4,0,.6.3.6.3,0,0-.2.3-.5.3h0ZM47.4,44.3s.2.5-.1.7c-.4.1-.5-.5-.5-.5l-1.9-6.1s0,0,0-.2c.2,0,.4,0,.6-.1.1.4,1.9,6.2,1.9,6.2h0ZM51.6,47.7s.2.5-.1.7c-.4.1-.5-.5-.5-.5l-3.2-10.3c.2,0,.4-.2.7-.2.3,1.1,3.2,10.4,3.2,10.4h0ZM54.3,45.8s.2.5-.1.7c-.4.1-.5-.5-.5-.5l-3-9.7c.2-.1.4-.2.6-.3.2.7,3,9.9,3,9.9h0ZM56.3,43c-.4.1-.5-.5-.5-.5l-2.4-8c.2-.1.4-.3.6-.5,0,0,0,0,0,0,0,.2,2.5,8.2,2.5,8.2,0,0,.2.5-.1.7Z"/>
  </g>
  <text class="cls-4" transform="translate(91.6 77.4)"><tspan x="0" y="0">DEUTSCHLAND</tspan></text>
  <text class="cls-3" transform="translate(91.6 77.4)"><tspan x="0" y="0">DEUTSCHLAND</tspan></text>
</svg>