<?xml version="1.0" encoding="UTF-8"?>
<svg id="Ebene_1" data-name="Ebene 1" xmlns="http://www.w3.org/2000/svg" viewBox="0 0 20.97 20.97">
  <defs>
    <style>
      .cls-1 {
        fill: none;
        stroke: #fff;
        stroke-miterlimit: 10;
      }

      .cls-2 {
        fill: #fff;
        stroke-width: 0px;
      }
    </style>
  </defs>
  <path class="cls-2" d="M10.48,1c5.23,0,9.48,4.25,9.48,9.48s-4.25,9.48-9.48,9.48S1,15.71,1,10.48,5.25,1,10.48,1M10.48,0C4.69,0,0,4.69,0,10.48s4.69,10.48,10.48,10.48,10.48-4.69,10.48-10.48S16.27,0,10.48,0h0Z"/>
  <g id="NBlHnE">
    <g>
      <path class="cls-1" d="M10.53,14.47c-2.04,0-3.9-.59-5.51-1.86-.61-.49-1.14-1.07-1.68-1.64-.31-.33-.27-.68.03-1.04,1.98-2.42,4.55-3.59,7.64-3.42,2.61.14,4.8,1.3,6.48,3.33.42.51.44.68.02,1.23-.95,1.25-2.19,2.13-3.64,2.72-1.07.44-2.18.71-3.35.68ZM10.56,13.21c1.52-.05,2.69-1.27,2.66-2.77-.04-1.56-1.34-2.83-2.9-2.72-1.48.1-2.67,1.33-2.59,2.9.08,1.5,1.3,2.64,2.84,2.59Z"/>
      <path class="cls-1" d="M10.4,12.45c-1,0-1.95-.95-1.9-1.96.05-1.25.91-1.91,1.91-1.98,1.12-.07,2.07.91,2.05,2-.02,1.11-.91,1.95-2.06,1.95Z"/>
    </g>
  </g>
</svg>